<?xml version="1.0" encoding="utf-8"?>
<!-- Generator: Adobe Illustrator 24.1.0, SVG Export Plug-In . SVG Version: 6.00 Build 0)  -->
<svg version="1.1" xmlns="http://www.w3.org/2000/svg" xmlns:xlink="http://www.w3.org/1999/xlink" x="0px" y="0px"
	 viewBox="0 0 445 213" style="enable-background:new 0 0 445 213;" xml:space="preserve">
<style type="text/css">
	.st0{display:none;}
	.st1{display:inline;}
	.st2{fill:#CCA70A;}
	.st3{display:inline;stroke:#F5FFF5;stroke-miterlimit:10;}
	.st4{fill:#C0C0C0;}
	.st5{fill:#00000F;}
	.st6{display:none;fill:#CCA70A;stroke:#F5FFF5;stroke-miterlimit:10;}
</style>
<g id="Capa_1" class="st0">
	<rect width="445" height="213"/>
	<g class="st1">
		<path class="st2" d="M60.5,142.9c0.2,1.5,0.4,3.1,0.5,4.6c0.1,1.5,0,3.1-0.3,4.6c-0.2,1.6-0.6,3.1-1.1,4.6
			c-0.5,1.5-1.2,2.9-2.1,4.2c-1.1,1.6-2.4,3.1-3.9,4.4c-1.5,1.3-3.1,2.4-4.8,3.2c-0.7,0.4-1.4,0.7-2.2,0.9c-0.7,0.2-1.5,0.4-2.2,0.5
			c-0.6,0.1-1.2,0.2-1.8,0.2c-0.6,0-1.2,0-1.8,0c-1.1-0.1-2.2-0.3-3.3-0.6c-1.1-0.3-2.1-0.7-3.1-1.2c-2.2-1-4.1-2.3-5.9-4
			c-1.8-1.6-3.2-3.5-4.2-5.7c-0.5-1.1-0.9-2.1-1.2-3.3c-0.3-1.1-0.4-2.3-0.4-3.5c0-1.3,0.2-2.6,0.5-3.7c0.1-0.3,0.2-0.6,0.3-0.9
			c0.1-0.3,0.2-0.6,0.3-0.9c0.2-0.4,0.3-0.6,0.4-0.8l0.2-0.4c0.1-0.1,0.2-0.2,0.2-0.4c0-0.1,0.1-0.3,0.2-0.4
			c0.1-0.2,0.2-0.3,0.3-0.4l0.4-0.6c0.2-0.4,0.5-0.8,0.9-1.1c0.4-0.4,0.7-0.7,1.1-1c0.4-0.3,0.8-0.6,1.2-0.8
			c0.4-0.2,0.9-0.4,1.3-0.6c0.2-0.1,0.5-0.2,0.8-0.2c0.3,0,0.6,0,0.8,0.3c0.2,0.2,0.2,0.5,0,0.8c-0.2,0.3-0.3,0.5-0.4,0.7
			c0,0-0.1,0.1-0.1,0.1c0,0,0,0.1-0.1,0.1c0,0.1-0.1,0.2-0.1,0.3c0,0.1-0.1,0.2-0.1,0.3c-0.4,0.7-0.7,1.5-0.9,2.4
			c-0.4,2.2-0.4,4.3,0.2,6.3c0,0.1,0,0.2,0.1,0.3c0.7,2.2,1.8,4.1,3.3,5.9c1.5,1.8,3.2,3.3,5.1,4.5c1.2,0.8,2.6,1.4,3.9,1.9
			c1.4,0.5,2.7,0.8,4.1,0.9c0.9,0,1.8-0.1,2.8-0.2c0.3,0,0.6-0.1,0.8-0.3c0.1,0,0.2,0,0.2-0.1h0.1c0,0,0.1-0.1,0.1-0.1
			c0,0,0.1,0,0.1-0.1c0,0,0.1,0,0.1-0.1l0.4-0.4c0-0.1,0.1-0.2,0.1-0.3c0-0.1,0.1-0.2,0.1-0.3c0.3-0.4,0.5-0.7,0.6-0.9
			c0.6-1.2,1.1-2.5,1.5-3.9c0.6-2.8,0.8-5.7,0.4-8.6c-0.3-2.9-0.9-5.7-1.7-8.5c-0.5-1.6-1-3.1-1.5-4.7c-0.6-1.5-1.2-3.1-1.8-4.6
			c-0.7-1.5-1.4-3-2.1-4.5c-0.7-1.5-1.5-2.9-2.3-4.4c-0.7-1.1-1.3-2.2-2-3.3c-0.6-1.1-1.3-2.2-2.1-3.3c-0.5,0.2-1.1,0.4-1.6,0.5
			c-0.5,0.1-1.1,0.3-1.6,0.4c-1.4,0.3-2.8,0.5-4.2,0.6c-1.4,0.1-2.8,0.2-4.3,0.3c-0.7,0-1.3,0.1-2,0.1c-0.7,0-1.3,0.1-2,0.2
			c-0.5,0-0.9,0.1-1.4,0.1c-0.4,0-0.9,0.1-1.4,0.2l-0.1,0.1c-0.2,0.1-0.4,0.2-0.5,0.2c-0.1,0-0.3,0.1-0.5,0.1
			c-0.2,0.1-0.5,0.2-0.8,0.2c-0.3,0-0.6,0-0.7-0.3c-0.2-0.2-0.2-0.5-0.1-0.8s0.3-0.5,0.4-0.6c0.5-0.8,1.1-1.4,1.9-2
			c1.1-0.7,2.1-1.3,3.1-1.7c0.1,0,0.2,0,0.2-0.1h0.1l-0.7,0.3l0.8-0.4c0.2,0,0.4-0.1,0.6-0.1c0.2,0,0.3-0.1,0.5-0.1
			c1.2-0.3,2.5-0.5,3.7-0.5c1.2-0.1,2.5-0.2,3.7-0.3c1.4-0.1,2.8-0.2,4.1-0.3c1.3-0.1,2.7-0.3,4.1-0.6c0.4,0,0.9-0.2,1.4-0.4
			c0.4-0.2,0.8-0.4,1.1-0.5c0.4-0.2,0.7-0.3,1.1-0.3c0.3,0,0.6,0,0.9,0.3c0.5,0.7,0.9,1.4,1.4,2.1c0.5,0.7,0.9,1.4,1.3,2.1
			c3.5,5.7,6.3,11.6,8.5,17.9c0.6,1.7,1.1,3.4,1.5,5C59.8,139.5,60.2,141.2,60.5,142.9z"/>
		<path class="st2" d="M93.5,138.5c0.1,0.5,0.3,1.1,0.4,1.6c0.1,0.6,0.1,1.1,0.1,1.7c0,1.2-0.1,2.5-0.4,3.7c-0.6,2.9-1.6,5.7-3,8.4
			c-0.8,1.5-1.7,3-2.8,4.5c-1,1.4-2.2,2.8-3.5,4c-1.3,1.3-2.9,2.4-4.6,3.4c-0.8,0.5-1.7,0.9-2.6,1.3c-0.9,0.4-1.8,0.6-2.8,0.7
			c-1.2,0.2-2.5,0.1-3.7-0.4c-1.2-0.4-2.4-1.2-3.5-2.2c-0.5-0.4-0.9-0.9-1.3-1.4c-0.4-0.5-0.8-1-1-1.6c-0.2-0.4-0.4-0.8-0.6-1.2
			c-0.1-0.4-0.3-0.8-0.4-1.2c-0.7-2.2-1.1-4.4-1.2-6.6c-0.1-2.3,0-4.5,0.2-6.7c0.2-2.4,0.7-4.8,1.4-7.2c0.3-1.1,0.7-2.1,1.2-3.1
			c0.4-1,1-2,1.7-2.9c1-1.4,2.1-2.6,3.5-3.7c1.4-1.1,2.9-1.9,4.5-2.5c0.5-0.2,1.1-0.4,1.6-0.4c0.6,0,1.1,0,1.7,0c0.1,0,0.2,0,0.2,0
			c0,0,0.1,0,0.2,0l0.1-0.1c0.9-0.3,1.7-0.6,2.6-0.7c0.9-0.1,1.8,0,2.7,0.3c1.2,0.4,2.3,1,3.2,1.9c0.9,0.9,1.8,1.8,2.5,2.8
			C91.6,133.3,92.7,135.7,93.5,138.5z M87.1,146.3c0-0.6,0-1.2-0.1-1.8c-0.1-0.6-0.2-1.2-0.4-1.7c-0.3-1.1-0.7-2.1-1.2-3.1
			c-0.5-1-1-1.9-1.6-2.8c-0.5-0.8-1.1-1.6-1.7-2.3c-0.6-0.7-1.3-1.4-2.2-1.9c-0.7,0.5-1.3,0.8-2,1.1c-0.3,0.1-0.6,0.1-0.8,0.1
			c-0.2,0-0.5-0.1-0.7-0.3c-0.2-0.1-0.3-0.2-0.4-0.3l-0.4-0.2c-0.3,0.2-0.7,0.5-1.1,0.7c-0.4,0.2-0.8,0.4-1.2,0.5
			c-0.2,0.1-0.5,0.2-0.8,0.2c-0.3,0-0.6,0-0.7-0.3l-0.1-0.1c-0.5,1.1-0.9,2.4-1.2,3.7c-0.1,0.7-0.3,1.3-0.4,1.9
			c-0.1,0.6-0.2,1.3-0.3,1.9c-0.2,2.2-0.3,4.3-0.3,6.5c0,2.2,0.4,4.3,0.9,6.4c0.3,1,0.7,2,1.2,2.9c1,1.5,2.2,2.8,3.6,3.7
			c0.9,0.6,1.9,0.9,3.1,1.1c0.2,0,0.4,0,0.6,0c0.2,0,0.4-0.1,0.6-0.1c0.1,0,0.2,0,0.2,0c0,0,0.1,0,0.2,0c0,0,0-0.1,0.1-0.1
			c0,0,0.1,0,0.1,0c0,0,0.1,0,0.1,0v-0.1h0.1l0.1-0.1c0.1-0.1,0.2-0.2,0.2-0.2c0,0,0.1-0.1,0.2-0.2c0,0,0-0.1,0-0.1c0,0,0,0,0-0.1
			c0.1-0.1,0.3-0.3,0.5-0.6l0.4-0.4c0-0.1,0.1-0.2,0.1-0.2c0,0,0.1-0.1,0.1-0.1c0.3-0.4,0.6-0.9,0.9-1.3c0.3-0.5,0.6-0.9,0.9-1.4
			c0.6-1.1,1.1-2.2,1.5-3.4c0.4-1.2,0.8-2.3,1.2-3.5c0.1-0.7,0.3-1.3,0.4-2C87,147.6,87.1,147,87.1,146.3z"/>
		<path class="st2" d="M127.2,144.8c0.1,1.6,0.2,3.2,0.3,4.8c0,1.6,0,3.2,0,4.8c0,1.5-0.1,3.1-0.1,4.6c0,1.5-0.1,3-0.2,4.6
			c-0.1,1.2-0.2,2.5-0.2,3.7c0,1.2-0.1,2.5-0.1,3.7c0,0.3-0.1,0.7-0.4,1c-0.2,0.3-0.5,0.6-0.6,0.8c-0.4,0.4-0.8,0.8-1.2,1.2
			c-0.4,0.3-0.9,0.6-1.3,0.9c-0.1,0.1-0.3,0.2-0.7,0.4c-0.4,0.2-0.8,0.3-1.2,0.4c-0.4,0.1-0.7,0.2-1,0.1c-0.3,0-0.5-0.3-0.5-0.6
			v-0.1c0-1.2,0-2.5,0-3.7c0-1.2,0.1-2.5,0.2-3.7c0.1-1.5,0.2-3.1,0.2-4.6c0-1.5,0.1-3,0.1-4.6c0-1.6,0-3.2,0-4.8
			c0-1.6-0.1-3.2-0.3-4.8c-0.1-1.4-0.3-2.9-0.5-4.3c-0.2-1.4-0.5-2.8-0.9-4.2c-0.2-0.8-0.5-1.6-0.9-2.4c-0.3-0.8-0.7-1.5-1.2-2.3
			c-0.3-0.5-0.7-1-1.1-1.5c-0.4-0.5-0.8-0.9-1.4-1.2c-1,1.9-1.7,3.8-2.3,5.9c-0.6,2.1-1.2,4.1-1.7,6.2c-0.3,1.2-0.6,2.5-0.8,3.8
			c-0.3,1.3-0.5,2.6-0.8,3.9c-0.3,1.8-0.6,3.5-0.9,5.3c-0.3,1.8-0.5,3.5-0.6,5.4c0,0.4-0.2,0.7-0.4,1c-0.2,0.3-0.4,0.6-0.6,0.8
			c-0.4,0.4-0.8,0.8-1.2,1.2c-0.4,0.3-0.9,0.6-1.3,0.9c-0.1,0.1-0.3,0.2-0.7,0.4c-0.4,0.2-0.8,0.3-1.2,0.4c-0.4,0.1-0.7,0.2-1,0.1
			c-0.3,0-0.5-0.3-0.5-0.6c0-2.5-0.1-5-0.2-7.5c-0.1-2.5-0.3-4.9-0.5-7.4c-0.1-1.8-0.3-3.7-0.5-5.5c-0.2-1.8-0.3-3.7-0.5-5.6
			c-0.1-0.8-0.2-1.6-0.3-2.4c-0.1-0.8-0.2-1.6-0.3-2.4c0-0.4-0.1-0.7-0.1-1.1c0-0.3-0.1-0.7-0.1-1.1c0-0.2,0-0.4,0-0.5
			c0-0.2,0-0.3,0-0.5c0-0.1-0.1-0.2-0.1-0.4c0-0.2,0-0.4,0.1-0.6c0-0.1-0.1-0.3-0.1-0.4c0-0.1,0-0.3-0.1-0.4c0-0.3,0.1-0.6,0.3-0.9
			c0.3-0.3,0.5-0.6,0.6-0.8c0.7-0.7,1.5-1.3,2.3-1.9c0.1-0.1,0.4-0.2,0.7-0.4c0.3-0.2,0.7-0.3,1-0.4c0.4-0.1,0.7-0.1,1-0.1
			c0.3,0.1,0.5,0.3,0.5,0.6c0,0.2,0,0.4,0.1,0.5c0.1,0.1,0.2,0.3,0.2,0.5c0.2,2,0.5,3.9,0.7,5.8c0.2,1.9,0.5,3.9,0.6,5.8
			c0.2-0.5,0.5-1.1,0.6-1.6c0.2-0.6,0.4-1.1,0.6-1.6c0.5-1,1-2,1.5-3c0.6-1,1.2-1.8,1.9-2.7c0.5-0.6,1.1-1.2,1.8-1.8
			c0.6-0.6,1.3-1,2.1-1.5c0.6-0.3,1.2-0.6,1.8-0.9s1.3-0.4,2-0.4c0.4,0,0.7,0,1.1,0.1c0.3,0,0.7,0.2,1.1,0.4
			c0.4,0.2,0.7,0.5,1.1,0.8c0.3,0.3,0.6,0.6,0.9,1c0.8,1,1.5,2,2,3.2c0.5,1.2,0.9,2.4,1.3,3.6c0.4,1.4,0.7,2.8,0.9,4.3
			C126.9,142,127.1,143.4,127.2,144.8z"/>
		<path class="st2" d="M216.2,117.1c0.3,0.1,0.5,0.3,0.5,0.6c0,0.3-0.1,0.6-0.4,0.9c-0.2,0.3-0.5,0.6-0.7,0.9s-0.4,0.5-0.5,0.6
			c-0.9,0.8-1.7,1.3-2.5,1.7c-0.3,0.1-0.6,0.3-0.9,0.4c-0.3,0.1-0.7,0.1-1,0c-2.3-0.5-4.5-1-6.7-1.7c-2.2-0.6-4.4-1.2-6.7-1.8
			c-1.4-0.4-2.9-0.7-4.3-1.1c-1.4-0.3-2.9-0.6-4.4-0.9c0,0.5,0.1,1.1,0.1,1.6c0,0.5,0,1.1,0.1,1.6c0,3.3,0,6.5-0.1,9.8
			c-0.1,3.2-0.2,6.5-0.1,9.8c0,3.4,0.2,6.7,0.5,10c0.3,3.3,0.9,6.6,1.8,9.8c0.2,0.6,0.4,1.2,0.5,1.7s0.4,1.1,0.6,1.7
			c0.1,0.4,0.1,0.7-0.1,0.9c0,0.1-0.1,0.2-0.1,0.3c0,0.1-0.1,0.2-0.1,0.3c-0.5,0.8-1.2,1.5-2,2.1c-0.4,0.3-0.8,0.6-1.2,0.8
			c-0.4,0.2-0.9,0.4-1.3,0.6c-0.2,0-0.5,0.1-0.8,0.2s-0.6,0-0.8-0.3c-0.6-1.1-1-2.3-1.4-3.5c-0.3-1.2-0.6-2.5-0.9-3.7
			c-0.5-2.6-0.9-5.2-1.1-7.8c-0.3-3.5-0.4-6.9-0.4-10.3c0-3.4,0.1-6.9,0.2-10.3c0-1.5,0-3,0-4.5c0-1.5,0-3,0-4.5
			c0-1.2,0-2.3-0.1-3.5c-0.1-1.2-0.2-2.3-0.5-3.5c0-0.2,0-0.3,0.1-0.4c-1.2-0.2-2.3-0.3-3.5-0.4c-1.2-0.1-2.4-0.2-3.6-0.3
			c-2.6,0-5.2,0-7.8,0.2c-0.2,0.2-0.5,0.5-0.8,0.6c-0.3,0.2-0.5,0.4-0.8,0.5c-0.3,0.2-0.6,0.5-1,0.6c-0.4,0.2-0.8,0.3-1.2,0.3
			c-0.9,0-1.7,0-2.6,0c-0.9,0-1.7,0-2.6,0.1c-0.2,0-0.5,0-0.7-0.1c-0.2-0.1-0.3-0.3-0.3-0.5c0-0.4,0.2-0.8,0.4-1.1
			c0.6-0.8,1.2-1.5,2-2c0.6-0.4,1.2-0.8,1.7-1.1c3.2-1.3,6.6-2.2,10.3-2.7c3.9-0.5,7.9-0.5,11.8-0.1c3.9,0.4,7.8,1,11.7,1.8
			c1.9,0.4,3.8,0.8,5.7,1.3c1.9,0.5,3.8,1,5.7,1.5c1.7,0.5,3.5,0.9,5.2,1.4C212.8,116,214.5,116.5,216.2,117.1z"/>
		<path class="st2" d="M254.7,153.8c0,1.4,0,2.9,0.1,4.4c0,1.5,0.2,2.9,0.4,4.3c0,0.2,0,0.5-0.1,0.6c-0.1,0.2-0.2,0.4-0.3,0.6
			c-0.1,0.1-0.2,0.2-0.3,0.3c-0.1,0.1-0.2,0.2-0.3,0.3c-0.4,0.4-0.8,0.8-1.2,1.2c-0.4,0.3-0.9,0.6-1.3,0.9c-0.4,0.2-0.8,0.4-1.2,0.6
			c-0.4,0.2-0.8,0.3-1.2,0.4c-0.4,0.1-0.7,0-0.9-0.3l-0.2-0.4c-0.1-0.3-0.1-0.5-0.1-0.5V166c-0.1-0.2-0.2-0.5-0.3-0.7
			c-0.1-0.2-0.2-0.4-0.4-0.6c-0.2-0.2-0.3-0.5-0.1-0.8c0.2-0.3,0.3-0.6,0.4-0.7c0.1-0.1,0.1-0.2,0.1-0.2c-0.1-1.1-0.1-2.2-0.1-3.4
			c0-1.2,0-2.3,0-3.5c0-1.7,0-3.3,0-5c0-1.7,0-3.3-0.1-5c-0.1-1.5-0.2-3.1-0.4-4.6c-0.2-1.5-0.4-3-0.8-4.4c-0.1-0.2-0.2-0.4-0.2-0.6
			c0-0.2-0.1-0.4-0.2-0.6c-0.4,1.3-0.8,2.6-1.1,3.9c-0.8,3.6-1.5,7.1-1.9,10.8c-0.5,3.6-1.2,7.2-2.3,10.7c-0.1,0.4-0.3,0.8-0.6,1.1
			s-0.6,0.7-0.9,0.9c-0.7,0.7-1.6,1.3-2.7,1.9c-0.1,0-0.3,0.1-0.6,0.3c-0.3,0.1-0.5,0.2-0.8,0.2c-0.3,0-0.5,0-0.8-0.1
			c-0.2-0.1-0.3-0.3-0.3-0.5v-1c0-2.1,0.1-4.1,0.1-6.1c0-2,0-4.1,0-6.1c-0.1-2.5-0.2-5-0.4-7.6c-0.1-1.1-0.3-2.2-0.5-3.3
			c-0.2-1.1-0.4-2.2-0.8-3.2c-0.2-1-0.6-1.9-1-2.8s-1.1-1.7-1.9-2.2c-0.1-0.1-0.2-0.1-0.2-0.1c-0.4,0.9-0.8,1.8-1.1,2.8
			c-0.3,1-0.6,1.9-0.8,2.9c-0.1,0.5-0.2,0.8-0.3,1.1c-0.5,2.5-0.9,5.1-1.3,7.6c-0.3,2.5-0.6,5.1-0.8,7.7c-0.1,1.1-0.3,2.2-0.4,3.3
			c-0.1,1.1-0.2,2.2-0.4,3.3c-0.1,0.8-0.2,1.6-0.3,2.4c-0.1,0.8-0.3,1.6-0.5,2.4c-0.2,0.5-0.5,1-0.9,1.3l-0.7,0.7
			c-0.4,0.4-0.8,0.7-1.2,1c-0.4,0.3-0.9,0.6-1.4,0.8c-0.3,0.1-0.6,0.3-1,0.4c-0.4,0.1-0.7,0.2-1,0.1c-0.3-0.2-0.5-0.4-0.4-0.6
			c-0.9-3.9-1.6-7.8-2-11.7s-0.8-7.8-1-11.7c-0.1-1.5-0.2-3-0.3-4.4c-0.1-1.5-0.1-2.9-0.1-4.4v-3v-1.2v-0.5c0-0.1,0-0.3,0-0.4
			c0-0.1,0.1-0.3,0.1-0.4c0.1-0.2,0.2-0.5,0.4-0.7c0.2-0.2,0.4-0.5,0.5-0.6c0.3-0.4,0.7-0.7,1.1-1.1c0.4-0.3,0.8-0.6,1.2-0.9
			c0.2-0.1,0.6-0.3,1.2-0.6s1.1-0.4,1.5-0.4c0.3,0,0.5,0.1,0.5,0.3c0.1,0.1,0.2,0.3,0.2,0.4v4.2v1.9c0,0.6,0,1.2,0,1.7
			c0,0.6,0.1,1.2,0.1,1.7c0.1,0.7,0.2,1.4,0.2,2.1c0,0.7,0.1,1.4,0.1,2.1c0.2-0.9,0.5-1.7,0.7-2.6c0.2-0.9,0.5-1.7,0.8-2.5
			c0.4-1.1,0.9-2.2,1.4-3.2c0.6-1,1.2-1.9,2-2.7c0.7-0.7,1.5-1.4,2.3-2.1s1.7-1.2,2.6-1.6c0.6-0.3,1.3-0.5,1.9-0.7
			c0.6-0.2,1.3-0.2,2-0.1c0.8,0.1,1.5,0.4,2.1,0.9c0.6,0.5,1.1,1.1,1.5,1.8c0.5,0.9,0.9,1.8,1.2,2.8c0.3,1,0.6,2,0.8,2.9
			c0.1,0.4,0.2,0.7,0.2,1.1c0,0.3,0.1,0.7,0.2,1c0.6-1.3,1.2-2.6,2-3.9c0.8-1.2,1.6-2.4,2.6-3.5c0.4-0.5,0.9-1,1.5-1.4
			c0.6-0.4,1.2-0.8,1.9-1.2c0.3-0.1,0.7-0.2,1.2-0.4c0.5-0.2,0.9-0.1,1.2,0.2c0.9,1.1,1.5,2.2,2.1,3.5c0.5,1.3,0.9,2.6,1.2,4
			c0.3,1.5,0.6,3.1,0.6,4.7c0.1,1.6,0.2,3.1,0.2,4.7c0,1.7,0.1,3.3,0,5C254.6,150.4,254.7,152.1,254.7,153.8z"/>
		<path class="st2" d="M291.8,150.1c0,0.2,0.1,0.5,0.1,0.8c0,0.3,0,0.5,0,0.8c0,0.3-0.1,0.7-0.1,1c0,0.3-0.1,0.6-0.2,0.9
			c-0.3,1.2-0.8,2.4-1.6,3.6c-0.1,0.2-0.2,0.4-0.4,0.6c-0.1,0.2-0.3,0.4-0.4,0.5c-0.6,0.8-1.2,1.5-1.9,2.2c-0.6,0.6-1.3,1.2-1.9,1.7
			c-0.7,0.5-1.4,1-2.1,1.5c-1.1,0.7-2.3,1.3-3.5,1.9c-1.2,0.5-2.5,1-3.7,1.3c-1.2,0.3-2.5,0.6-3.8,0.6c-1.1,0.1-2.2,0.1-3.3,0
			c-1.1-0.1-2.1-0.3-3.2-0.6c-0.9-0.2-1.8-0.6-2.6-1.1c-0.8-0.5-1.6-1.1-2.3-1.8c-0.7-0.8-1.2-1.6-1.5-2.6c-0.4-0.9-0.6-1.9-0.7-2.9
			c0-1.3,0.1-2.7,0.4-4.1c0.2-0.7,0.4-1.4,0.6-2.1c0.2-0.7,0.6-1.3,0.9-2c0.6-0.9,1.3-1.7,2.1-2.5c0.8-0.7,1.6-1.4,2.6-2
			c0.7-0.4,1.4-0.8,2.2-1.1c0.8-0.3,1.6-0.5,2.4-0.6c1-0.1,1.9-0.1,3,0.1c1,0.2,2,0.5,3,0.9c1.1,0.4,2.2,0.9,3.2,1.5
			c1,0.6,2,1.2,3,1.9c0.3,0.2,0.7,0.5,1,0.8c0.3,0.3,0.7,0.5,1.1,0.8v-2.3c0-1.2-0.1-2.4-0.2-3.6c-0.1-1.2-0.3-2.4-0.6-3.6
			c-0.3-1.1-0.8-2-1.3-2.9c-0.5-0.9-1.2-1.6-2.2-2.3c-1.2-0.6-2.5-1-3.9-1.1c-0.2,0-0.5-0.1-0.8,0c-0.3,0-0.5,0.1-0.8,0.1
			c-0.2,0.1-0.4,0.2-0.6,0.2c-0.2,0-0.4,0.1-0.6,0.2c-0.1,0.1-0.3,0.2-0.5,0.2c-0.2,0-0.3,0.1-0.5,0.2c0,0-0.1,0-0.1,0
			c0,0-0.1,0-0.2,0c-0.6,0.2-1.2,0.5-1.8,0.8c-0.6,0.3-1.2,0.6-1.8,0.9l-0.9,0.4l-0.1,0.1c-0.5,0.3-1.1,0.6-1.7,0.9
			c-0.1,0.2-0.3,0.4-0.5,0.5c-0.2,0.2-0.3,0.3-0.5,0.5c-0.4,0.3-0.8,0.6-1.2,0.9c-0.4,0.3-0.9,0.6-1.3,0.8c-0.5,0.2-1,0.4-1.4,0.4
			h-0.6c-0.2-0.1-0.3-0.2-0.4-0.3c-0.1-0.1-0.1-0.2-0.1-0.5c0-0.2,0.1-0.5,0.2-0.7c0.1-0.2,0.2-0.4,0.3-0.5c0.2-0.4,0.5-0.8,0.9-1.2
			l0.8-0.8c0.2-0.1,0.4-0.3,0.5-0.4c0.1-0.1,0.3-0.3,0.5-0.4c0.1-0.1,0.3-0.2,0.4-0.3c0.3-0.2,0.6-0.5,0.9-0.6
			c0.3-0.2,0.6-0.4,0.9-0.6c0.4-0.2,0.8-0.5,1.2-0.8c0.4-0.3,0.9-0.5,1.3-0.8c1.4-0.8,2.9-1.6,4.4-2.3c1.5-0.7,3-1.3,4.6-1.9
			c0.6-0.2,1.3-0.4,1.9-0.6c0.6-0.2,1.3-0.3,2-0.3c0.7,0,1.4,0,2.1,0.1c0.7,0.1,1.4,0.3,2.1,0.5c1.1,0.4,2,0.9,2.8,1.7
			c0.8,0.7,1.4,1.6,1.9,2.6c0.5,1.1,0.9,2.3,1.2,3.5s0.4,2.5,0.5,3.7c0.1,1.4,0.1,2.9,0.1,4.3c0,1.4-0.1,2.9-0.1,4.4
			c0.4-0.1,0.7-0.1,1-0.1C291.7,149.5,291.8,149.7,291.8,150.1z M264.1,139.1C264.1,139,264.1,139,264.1,139.1
			c-0.2,0.2-0.3,0.3-0.3,0.2C263.9,139.3,264,139.2,264.1,139.1z M279.3,161.5c0.2,0,0.4-0.1,0.6-0.1c0.2,0,0.3-0.1,0.5-0.2
			c0.1,0,0.3-0.1,0.4-0.1c0.1,0,0.3-0.1,0.4-0.1l0.3-0.1l1.1-0.4c0,0,0-0.1,0.1-0.1c-0.6-0.7-1.3-1.3-1.9-1.9
			c-0.6-0.6-1.3-1.2-2-1.8c-0.8-0.7-1.7-1.4-2.6-2.1c-0.9-0.6-1.8-1.3-2.8-1.9c-1.2-0.7-2.4-1.3-3.6-1.9c-1.3-0.6-2.6-1-3.9-1.1
			c-0.1,0.3-0.1,0.5-0.1,0.6c-0.2,1-0.4,1.9-0.4,2.9c0,1,0,2,0.3,2.9c0.6,1.8,1.7,3.2,3.3,4.2c0.9,0.5,1.9,0.9,2.9,1.2
			c1,0.3,2,0.4,3,0.5C276.3,161.9,277.8,161.8,279.3,161.5z"/>
		<path class="st2" d="M341.8,155.9c0.1,0.2,0.1,0.5,0,0.8c-0.1,0.3-0.3,0.5-0.4,0.7c-0.3,0.5-0.7,1-1,1.4c-0.4,0.4-0.8,0.8-1.2,1.3
			l-0.3,0.3l-1.1,0.9c-0.1,0.1-0.2,0.2-0.3,0.3c-0.1,0.1-0.2,0.2-0.3,0.3c-1.4,1.1-3,1.8-4.8,2.4c-1.2,0.4-2.4,0.6-3.5,0.6
			c-1.3,0-2.7,0-4-0.3c-1.3-0.2-2.6-0.5-3.9-0.8c-1.4-0.4-2.7-0.8-4.1-1.3c-1.3-0.5-2.7-1-4-1.4c-1.3-0.5-2.6-1-3.9-1.5
			c-1.3-0.5-2.6-0.9-4-1.4c-0.5-0.2-1-0.4-1.5-0.5c-0.5-0.1-1-0.3-1.5-0.4c0.2,1.6,0.4,3.2,0.6,4.8c0.2,1.6,0.4,3.2,0.6,4.8
			c0,0.3-0.1,0.6-0.3,1c-0.3,0.4-0.5,0.6-0.7,0.8c-0.4,0.4-0.8,0.8-1.2,1.2c-0.4,0.3-0.9,0.6-1.3,0.9c-0.3,0.2-0.7,0.4-1.1,0.6
			c-0.4,0.2-0.8,0.3-1.3,0.3c-0.4,0.1-0.7,0-0.9-0.2c-0.4-1.2-0.7-2.3-1-3.5c-0.3-1.2-0.5-2.4-0.7-3.7c-0.2-2.2-0.4-4.3-0.4-6.4
			c0-2.1-0.1-4.3-0.1-6.4c0-1.5,0-3.1,0-4.6c0-1.6-0.1-3.1-0.4-4.6c-0.1-1.2-0.2-2.3-0.4-3.4c-0.2-1.1-0.3-2.3-0.4-3.4
			c0-0.5-0.1-0.9-0.1-1.4c0-0.5,0-0.9,0-1.4c0-0.2,0.1-0.5,0.1-0.7c0-0.2,0.1-0.4,0.2-0.7c0.2-0.4,0.5-0.8,0.8-1.2
			c0.3-0.3,0.6-0.7,1-1c0.3-0.3,0.6-0.5,0.8-0.7c0.3-0.2,0.6-0.4,0.9-0.6c0.7-0.5,1.4-0.9,2.3-1c0.4-0.1,0.7-0.1,1.1,0.1
			c0.3,0.2,0.7,0.5,1,0.8c0.2,0.2,0.2,0.5,0.1,0.8c-0.1,0.3-0.3,0.6-0.4,0.6c-0.4,0.5-0.8,1-1.2,1.4c0,0.1,0.1,0.2,0.1,0.4
			c0,1.1,0.2,2.3,0.4,3.5c0,0.3,0.1,0.7,0.1,1c0,0.3,0.1,0.7,0.2,1.1c0.1-0.1,0.2-0.2,0.3-0.3c0.1-0.1,0.2-0.2,0.3-0.3
			c0.7-0.7,1.4-1.3,2.2-1.9c0.8-0.6,1.6-1.1,2.4-1.6c0.8-0.4,1.6-0.8,2.5-1.2s1.7-0.7,2.6-0.9c1.1-0.2,2.1-0.4,3.2-0.4
			c1.1,0,2,0.3,3,0.9c0.6,0.4,1.1,1,1.3,1.8c0.3,0.7,0.4,1.5,0.5,2.2c0,1,0,1.9-0.3,2.9c-0.2,1-0.5,1.9-0.9,2.8
			c-0.9,2.4-2.1,4.4-3.5,6.2c-0.8,1-1.7,2-2.6,2.9c-0.9,0.9-1.8,1.8-2.8,2.6c0.2,0.1,0.6,0.2,1.1,0.3c1.3,0.4,2.6,0.8,3.9,1.3
			c1.3,0.5,2.5,1,3.8,1.4c1.4,0.5,2.7,1,4.1,1.5c1.3,0.5,2.7,0.9,4.1,1.4c1.2,0.4,2.4,0.7,3.6,1c1.2,0.3,2.5,0.4,3.7,0.5
			c0.4,0,0.9,0,1.3,0c0.5,0,0.9-0.1,1.4-0.2h0.1c0.5-0.6,1.1-1.2,1.7-1.7c0.4-0.3,0.8-0.6,1.2-0.8c0.4-0.2,0.9-0.4,1.3-0.6
			c0.2-0.1,0.5-0.2,0.8-0.2C341.3,155.6,341.6,155.7,341.8,155.9z M302.4,141.7c-0.4,1.6-0.6,3.2-0.7,4.8c-0.1,1.6-0.1,3.2,0,4.9
			c0.4-0.2,0.8-0.3,1.2-0.4c0.2,0,0.5,0,0.6,0c0.2,0,0.4-0.1,0.6-0.1c0.1,0,0.2-0.1,0.4-0.1c0.1,0,0.3-0.1,0.4-0.1
			c0.1,0,0.2-0.1,0.2-0.1s0.1,0,0.2-0.1c0.2-0.1,0.3-0.1,0.4-0.1c0.1,0,0.2-0.1,0.2-0.1c0,0,0.1-0.1,0.2-0.1c0.1,0,0.2,0,0.3-0.1
			c0,0,0.1-0.1,0.1-0.1c0-0.1,0.2-0.2,0.4-0.3c0.1-0.1,0.2-0.2,0.3-0.2c0.1,0,0.2-0.1,0.3-0.2c0,0,0.1-0.1,0.1-0.1
			c0,0,0-0.1,0.1-0.1c0.1,0,0.2-0.1,0.2-0.1c0,0,0.1-0.1,0.2-0.2c0.1-0.1,0.2-0.2,0.3-0.3c0.1-0.1,0.2-0.2,0.3-0.3c0,0,0-0.1,0-0.1
			c0,0,0,0,0-0.1c0.5-0.7,1-1.4,1.5-2.3c0.8-1.4,1.3-2.8,1.7-4.1c0.1-0.7,0.2-1.3,0.3-2c0-0.7,0-1.3-0.2-2c-0.3-0.8-0.7-1.5-1.4-1.9
			c-0.2-0.1-0.5-0.2-0.8-0.3c-0.3,0-0.5-0.1-0.8-0.1c-0.2,0-0.5,0-0.8,0c-0.3,0-0.5,0.1-0.8,0.1l-0.9,0.2c-0.1,0-0.3,0.1-0.5,0.2
			h-0.1c-0.1,0-0.2,0.1-0.3,0.1c-0.1,0-0.2,0.1-0.3,0.1c0,0-0.1,0-0.1,0c0,0-0.1,0-0.1,0l-0.1,0.1c-0.1,0.1-0.2,0.3-0.4,0.4
			c-0.1,0.2-0.2,0.3-0.3,0.4c-0.2,0.4-0.4,0.6-0.5,0.8c-0.3,0.7-0.6,1.3-0.8,2C302.8,140.3,302.6,141,302.4,141.7z M306.7,149.8
			c0,0-0.1,0-0.1,0.1c0,0-0.1,0-0.1,0c0,0,0,0-0.1,0l0.1-0.1L306.7,149.8l-0.1,0.1C306.6,149.9,306.6,149.9,306.7,149.8L306.7,149.8
			z M335.6,159.4c-0.3,0.2-0.5,0.3-0.4,0.3C335.3,159.6,335.4,159.6,335.6,159.4L335.6,159.4z"/>
		<path class="st2" d="M368.8,161.8c0.2,0.2,0.3,0.5,0.1,0.8c-0.2,0.4-0.3,0.6-0.4,0.7c-0.5,0.8-1.2,1.5-2,2.1
			c-0.4,0.3-0.8,0.6-1.2,0.8c-0.4,0.2-0.9,0.4-1.4,0.6c-0.2,0.1-0.5,0.2-0.8,0.2s-0.5-0.1-0.8-0.3c-0.2-0.2-0.5-0.4-0.8-0.6
			c-0.3-0.1-0.6-0.3-0.9-0.5c-1-0.6-2.1-1.2-3.1-1.7c-1.1-0.5-2.2-0.9-3.3-1.2c-1.1-0.3-2.2-0.6-3.4-0.8c-1.2-0.2-2.3-0.3-3.5-0.4
			c-1.2,0-2.4,0-3.6,0.1c-1.2,0.1-2.4,0.3-3.6,0.5c-0.6,0.1-1.2,0.3-2,0.6c-0.2,0.1-0.4,0.2-0.5,0.2c-0.2,0-0.3,0.1-0.5,0.2h-0.1
			c-0.1,0-0.2,0.1-0.3,0.1c-0.1,0-0.2,0.1-0.3,0.1c-0.2,0.1-0.4,0.2-0.5,0.3c-0.1,0.1-0.3,0.2-0.4,0.3l-0.4,0.2
			c-0.2,0.1-0.3,0.2-0.4,0.3c-0.1,0.1-0.3,0.2-0.4,0.3c-0.1,0.1-0.3,0.2-0.4,0.3c-0.7,0.7-1.6,1.2-2.6,1.4c-0.4,0.2-0.8,0.2-1.3,0.1
			c-0.4-0.1-0.6-0.4-0.4-0.8c0.1-0.4,0.3-0.8,0.4-1c1.9-2.9,3.9-5.7,6-8.4c2.1-2.7,4.3-5.3,6.7-7.8c4.3-4.7,8.9-8.9,13.9-12.6
			c-3.2-0.1-6.3-0.2-9.4-0.4c-3.1-0.2-6.2-0.4-9.4-0.5c-0.2,0-0.5,0-0.7,0s-0.4,0-0.7-0.1c-0.2,0.1-0.5,0.3-0.9,0.5
			c-0.4,0.2-0.9,0.3-1.4,0.4h-0.5c-1.1-0.5-2.1-0.9-3-1.1H330c-0.4-0.1-0.6-0.3-0.6-0.6c0-0.3,0.1-0.6,0.3-0.9s0.4-0.6,0.7-0.8
			c0.6-0.7,1.3-1.4,2.3-2c0.3-0.2,0.7-0.4,1.1-0.6c0.4-0.2,0.8-0.3,1.2-0.3c1,0,1.9,0,2.8,0c0.9,0,1.8,0,2.8,0.1l5.8,0.2
			c1.7,0.1,3.5,0.2,5.2,0.3c1.8,0.1,3.5,0.2,5.2,0.3c2.9,0.1,5.8,0.2,8.8,0.2c0.2,0,0.5,0,0.7,0.1c0.2,0,0.3,0.2,0.3,0.6
			c-0.1,0.4-0.3,0.8-0.5,1.2c-0.4,0.6-0.8,1.1-1.4,1.5c-0.5,0.4-1.1,0.8-1.7,1.2c-0.2,0.2-0.5,0.4-0.8,0.5c-0.3,0.2-0.6,0.3-0.9,0.5
			c-0.1,0.1-0.2,0.2-0.3,0.3c-0.1,0.1-0.2,0.1-0.3,0.2c-0.4,0.3-0.7,0.5-1,0.7c-0.7,0.5-1.3,1-1.9,1.4c-0.6,0.5-1.2,1-1.9,1.5
			c0,0-0.1,0.1-0.2,0.2c-0.1,0.1-0.2,0.2-0.3,0.3c-0.1,0.1-0.2,0.2-0.3,0.2c-0.1,0-0.2,0.1-0.3,0.2c-0.3,0.2-0.6,0.5-0.9,0.8
			c-0.3,0.3-0.6,0.5-0.9,0.8c-0.6,0.5-1.1,1.1-1.7,1.6c-0.6,0.6-1.1,1.1-1.7,1.6l-0.2,0.2l-0.2,0.2c-0.1,0.2-0.3,0.4-0.5,0.5
			c-0.2,0.1-0.3,0.3-0.5,0.5c-0.3,0.4-0.7,0.7-1,1.1c-0.3,0.3-0.6,0.7-0.9,1.1c-1.3,1.5-2.6,3-3.8,4.5c-0.1,0.1-0.2,0.3-0.4,0.5
			c-0.1,0.2-0.3,0.3-0.4,0.5c-0.1,0.1-0.1,0.2-0.1,0.2c-0.1,0.1-0.2,0.2-0.2,0.3c0,0.1-0.1,0.2-0.2,0.3l-1.7,2.4
			c-0.1,0.1-0.2,0.2-0.2,0.3c0,0.1-0.1,0.2-0.2,0.3c3.2-1.3,6.5-2.1,9.9-2.4c3.6-0.2,7.2,0.1,10.6,1.1c0.8,0.2,1.6,0.5,2.4,0.8
			c0.8,0.3,1.5,0.7,2.3,1c0.4,0.2,0.8,0.4,1.2,0.6c0.4,0.2,0.8,0.5,1.2,0.7c0.4,0.2,0.7,0.5,1,0.7
			C368.1,161.4,368.4,161.6,368.8,161.8z M338.2,134.9c0.1,0,0.2,0,0.2,0c0,0,0.1,0,0.2,0c-0.1,0-0.2,0-0.2,0
			C338.3,134.9,338.3,134.9,338.2,134.9z"/>
	</g>
	<g>
		<path class="st3" d="M17.1,180.4c7.2,0.4,11.2,1.8,20.7,1.6c62.4-0.2,134.2-1.5,209.6-3.2c17.2-0.4,41.2-0.2,67.6,0.3
			c19.7,0.7,35,1.3,39.3,2c10.7,1.7,16.7,3.1,20,5.2c1.6,1,2.6,2.1,2.8,3.2c0.1,1.3-1,2.5-2.8,3.8c-3,1.4-8,2.9-13.8,4.4
			c-5.1,1-10.3,1.9-17.9,2.2l-26.2,0.9c-5.7,0.2-5.8-0.1-2.8-0.6c11.1-1.8,22.6-3.2,29-4.7c3.7-0.8,6.6-1.7,8.3-2.5
			c0.9-0.4,1.4-0.8,1.4-1.3c0.4-2.6-7.3-2.9-16.5-2.8l-71.7,0.6l-77.2,1.3c-39.7,0.7-73.9,0.7-102,0c-8.8-0.2-19.3-0.6-19.3-0.6
			c-0.6,0-22.1-1.3-22.1-1.3s-10,0.3-19.3-1.6c-2.5-0.6-5.5-1.9-5.5-1.9l-2.8-1.3c0,0-3.7-1.6-4.1-1.9
			C8.2,180.9,10.2,179.9,17.1,180.4"/>
	</g>
	<g class="st1">
		<path class="st4" d="M322.1,40.4c0,0-5.5-23.5,20.5-30.8c0,0,1.8,23.9-16.2,32.8c0,0,10-9.3,12.3-23.5
			C338.7,18.9,325.9,17.9,322.1,40.4z"/>
		<path class="st4" d="M314.3,46.3c0,0-11.4,17.5-5.4,34.2c0,0-15,30.9-10,35.7c4.9,4.8,3.9,9.9,13.5,10.8
			c9.6,0.9,9.7-12.5,9.7-12.5s2.7,19.9-16,12.6c-3.6-1.4-5.3-6.6-7.3-7.8c-4.2-2.3-3.6-5.1-3.4-7.8c0.3-3.7,5.4-16.8,8.9-32.8
			C305.4,73.4,303.5,57.6,314.3,46.3z"/>
		<path class="st4" d="M324.8,98.4c0,0,0.9-0.2,2.5-0.6c0.8-0.2,1.8-0.5,2.9-0.8c0.6-0.1,1.1-0.3,1.7-0.5c0.6-0.2,1.3-0.4,1.9-0.6
			c0.7-0.2,1.4-0.4,2.1-0.7c0.7-0.3,1.4-0.5,2.2-0.8c0.7-0.3,1.5-0.6,2.3-0.9c0.8-0.3,1.5-0.7,2.3-1.1c0.4-0.2,0.8-0.4,1.2-0.6
			c0.4-0.2,0.8-0.4,1.2-0.6c0.4-0.2,0.8-0.4,1.2-0.6c0.4-0.2,0.7-0.5,1.1-0.7c0.4-0.2,0.8-0.5,1.1-0.7l1.1-0.8
			c0.3-0.3,0.7-0.5,1.1-0.8l1-0.9l0.5-0.4l0.1-0.1l0,0c0,0,0,0,0,0l0,0l0.1-0.1l0.2-0.3l0.5-0.5c0.2-0.2,0.3-0.3,0.4-0.5
			c0.3-0.3,0.5-0.7,0.8-1c0.3-0.3,0.5-0.7,0.8-1.1c1-1.4,1.7-3,2.3-4.6c0.6-1.6,1-3.2,1.3-4.7c0.3-1.5,0.5-3,0.7-4.4
			c0.4-2.8,0.7-5.2,1.2-6.8c0.3-0.8,0.6-1.4,0.9-1.8c0.1-0.2,0.3-0.3,0.4-0.4c0.1-0.1,0.1-0.1,0.1-0.1c0,0-0.2,0.2-0.4,0.6
			c-0.2,0.4-0.4,1-0.5,1.8c-0.1,0.8-0.1,1.8-0.1,2.9c0,1.1,0.1,2.4,0,3.9c0,1.4,0,3-0.2,4.7c-0.2,1.7-0.5,3.4-1,5.2
			c-0.5,1.8-1.3,3.6-2.3,5.3c-0.3,0.4-0.5,0.8-0.8,1.2c-0.3,0.4-0.6,0.8-0.9,1.2c-0.2,0.2-0.3,0.4-0.5,0.6l-0.5,0.5l-0.2,0.3
			l-0.1,0.1l0,0l0,0l0,0l-0.1,0.1l-0.6,0.5l-1.1,1c-0.4,0.3-0.8,0.6-1.2,0.9c-0.4,0.3-0.8,0.6-1.2,0.9c-0.4,0.3-0.8,0.5-1.2,0.8
			c-0.4,0.2-0.8,0.5-1.2,0.7c-0.4,0.2-0.9,0.4-1.3,0.6c-0.4,0.2-0.8,0.4-1.3,0.6c-0.4,0.2-0.9,0.4-1.3,0.5c-0.8,0.4-1.7,0.7-2.5,0.9
			c-0.8,0.3-1.6,0.5-2.4,0.8c-0.8,0.2-1.6,0.4-2.3,0.6c-0.8,0.2-1.5,0.3-2.2,0.5c-0.7,0.1-1.4,0.3-2,0.3c-0.6,0.1-1.3,0.2-1.8,0.2
			c-1.2,0.1-2.2,0.2-3,0.2c-0.8,0-1.5,0-1.9,0C325,98.4,324.8,98.4,324.8,98.4z"/>
		<path class="st4" d="M324.3,123c0,0,0-0.5,0.1-1.4c0-0.4,0.1-1,0.2-1.5c0.1-0.6,0.1-1.3,0.3-2c0.1-0.7,0.2-1.5,0.4-2.4
			c0.2-0.8,0.3-1.7,0.5-2.6c0.2-0.9,0.4-1.8,0.7-2.8c0.1-0.5,0.3-0.9,0.4-1.4c0.2-0.5,0.3-1,0.5-1.4c0.2-0.5,0.4-0.9,0.6-1.4l0-0.1
			l0,0l0,0c0,0,0,0,0-0.1l0,0l0.1-0.2l0.2-0.3l0.2-0.3c0.1-0.1,0.2-0.2,0.3-0.3l0.5-0.6c0.2-0.2,0.4-0.4,0.5-0.5
			c0.4-0.4,0.8-0.6,1.1-1c0.8-0.6,1.5-1.1,2.3-1.5c0.7-0.4,1.5-0.8,2.2-1.1c1.4-0.6,2.5-1,3.4-1.3c0.8-0.3,1.3-0.4,1.3-0.4
			s-0.4,0.3-1.2,0.7c-0.4,0.2-0.8,0.5-1.3,0.8c-0.5,0.3-1.1,0.7-1.7,1.1c-0.6,0.4-1.3,0.8-1.9,1.3c-0.7,0.5-1.3,1-2,1.6
			c-0.3,0.3-0.7,0.6-0.9,0.9l-0.4,0.5l-0.4,0.5c-0.1,0.1-0.1,0.2-0.2,0.2l-0.2,0.3l-0.2,0.3l-0.1,0.2l0,0c0.1-0.1,0,0,0,0l0,0l0,0
			l0,0.1c-0.2,0.4-0.4,0.9-0.5,1.3c-0.2,0.4-0.3,0.9-0.5,1.3c-0.2,0.5-0.3,0.9-0.5,1.4c-0.3,0.9-0.6,1.8-0.8,2.7
			c-0.2,0.9-0.5,1.7-0.7,2.5c-0.2,0.8-0.5,1.6-0.7,2.3c-0.4,1.4-0.8,2.6-1.1,3.4C324.4,122.6,324.3,123,324.3,123z"/>
		<path class="st4" d="M347.5,44.3c0,0-5.5-23.5,20.5-30.8c0,0,1.8,23.9-16.2,32.8c0,0,10-9.3,12.3-23.5
			C364.1,22.8,351.2,21.8,347.5,44.3z"/>
		<path class="st4" d="M365.7,23c0,0-1.6,4.5,0.1,4.9c15.7,3.9,40.9,14.5,51.7,40.6c15.3,36.9,3.6,74.2,3.6,74.2
			S460.8,44.3,365.7,23z"/>
		<path class="st4" d="M372.4,34.3c0,0,28.5,13.1,37.3,47.5c2.9,11.4,2.3,22.8,1.4,32.9c-2.1,23.5-9.9,40.6-9.9,40.6
			S451.7,70.3,372.4,34.3z"/>
		<path class="st4" d="M334.2,68.6c0,0-12.3,5-10,8.1c2.3,3.1,5.1,0.1,6.1-2.8C331,71.7,336.3,69.3,334.2,68.6z"/>
		<path class="st4" d="M303.8,116.6c0,0-0.7-7.7,4.6-6.2l-0.4,1.9C308,112.3,305.3,110.7,303.8,116.6z"/>
		<path class="st4" d="M346.3,24.8c0,0-16.2-5.6-21.8,13.9c-6.5,22.8,9,30.1,5.6,44.9c0,0,4.2-4.1,2.2-18.7
			C330.3,50.3,326.9,34.2,346.3,24.8z"/>
		<path class="st4" d="M357.5,21.2c0,0-16.9-5.8-23.3,9.6c-7.6,18.4,7.6,25.3,4.7,37.7c0,0,3.5-3.4,1.8-15.7
			C339.1,40.6,340.7,26.2,357.5,21.2z"/>
		<path class="st4" d="M358.9,47.5c0,0,0.3,0.1,1,0.4c0.6,0.3,1.6,0.7,2.8,1.3c1.2,0.6,2.6,1.4,4.3,2.5c1.6,1,3.5,2.3,5.5,3.8
			c3.9,3.1,8.4,7.2,12.6,12.6c4.2,5.4,8.2,12.1,11.2,19.9c1.5,3.9,2.8,8,3.7,12.4l0.2,0.8l0.2,0.8l0.2,0.8l0.2,0.9
			c0.2,1.2,0.4,2.3,0.5,3.4c0.3,2.3,0.5,4.6,0.6,7c0.2,4.8,0,9.7-0.6,14.6c-0.6,5-1.7,10-3.3,15.1c-3.1,10.1-8.5,20.1-16.4,28.7
			c-3.9,4.3-8.5,8.2-13.5,11.5c-5,3.3-10.5,6.1-16.2,8.2c-11.4,4.3-23.7,6.2-35.4,6.5c-5.9,0.2-11.8,0.1-17.5-0.3
			c-5.8-0.4-11.4-1.2-16.9-2.2c-5.5-1-10.8-2.3-15.9-3.7c-5.1-1.4-10-2.9-14.7-4.4c-4.7-1.5-9.3-3-13.7-4.4
			c-4.4-1.4-8.6-2.7-12.8-3.7c-4.1-1.1-8.1-2-11.9-2.7c-3.8-0.7-7.5-1.3-10.9-1.6c-6.9-0.7-13-0.8-18-0.6c-5,0.2-9,0.5-11.7,0.9
			c-1.3,0.1-2.4,0.3-3.1,0.4c-0.7,0.1-1.1,0.1-1.1,0.1s0.3-0.1,1-0.3c0.7-0.2,1.7-0.5,3-0.8c2.6-0.6,6.5-1.5,11.6-2.2
			c2.5-0.3,5.4-0.7,8.4-0.9c3.1-0.2,6.5-0.3,10-0.3c3.6,0.1,7.4,0.3,11.4,0.7c4,0.4,8.2,1.1,12.5,1.9c4.3,0.8,8.8,1.9,13.3,3
			c4.6,1.1,9.2,2.4,14,3.7c4.8,1.3,9.6,2.6,14.6,3.7c5,1.2,10.1,2.2,15.3,3c10.4,1.6,21.3,2.3,32.3,1.7c0.7,0,1.4-0.1,2-0.1
			c0.7,0,1.3-0.1,2.1-0.1l2.1-0.2l2-0.2c2.7-0.3,5.4-0.6,8.1-1.1c5.4-1,10.6-2.4,15.7-4.3c10.1-3.8,19.1-9.6,26.1-17
			c3.5-3.7,6.6-7.7,9.1-12c2.5-4.3,4.6-8.7,6.2-13.2c1.6-4.5,2.8-9.1,3.6-13.7c0.8-4.6,1.2-9.1,1.3-13.5c0-2.2,0-4.4-0.2-6.5
			c-0.1-1.1-0.2-2.1-0.3-3.2l-0.1-0.8l-0.1-0.8l-0.1-0.8l-0.1-0.8c-0.6-4.2-1.6-8.1-2.7-11.9c-2.3-7.5-5.4-14.1-8.9-19.6
			c-3.5-5.5-7.3-9.9-10.8-13.2c-3.5-3.3-6.5-5.7-8.7-7.1C360.1,48.1,358.9,47.5,358.9,47.5z"/>
	</g>
</g>
<g id="Capa_2">
	<g>
		<path class="st2" d="M321.8,41.7c0,0-5.5-23.5,20.5-30.8c0,0,1.8,23.9-16.2,32.8c0,0,10-9.3,12.3-23.5
			C338.4,20.1,325.6,19.1,321.8,41.7z"/>
		<path class="st2" d="M314.1,47.5c0,0-11.4,17.5-5.4,34.2c0,0-15,30.9-10,35.7c4.9,4.8,3.9,9.9,13.5,10.8
			c9.6,0.9,9.7-12.5,9.7-12.5s2.7,19.9-16,12.6c-3.6-1.4-5.3-6.6-7.3-7.8c-4.2-2.3-3.6-5.1-3.4-7.8c0.3-3.7,5.4-16.8,8.9-32.8
			C305.1,74.6,303.2,58.8,314.1,47.5z"/>
		<path class="st2" d="M324.5,99.6c0,0,0.9-0.2,2.5-0.6c0.8-0.2,1.8-0.5,2.9-0.8c0.6-0.1,1.1-0.3,1.7-0.5c0.6-0.2,1.3-0.4,1.9-0.6
			c0.7-0.2,1.4-0.4,2.1-0.7c0.7-0.3,1.4-0.5,2.2-0.8c0.7-0.3,1.5-0.6,2.3-0.9c0.8-0.3,1.5-0.7,2.3-1.1c0.4-0.2,0.8-0.4,1.2-0.6
			c0.4-0.2,0.8-0.4,1.2-0.6c0.4-0.2,0.8-0.4,1.2-0.6c0.4-0.2,0.7-0.5,1.1-0.7c0.4-0.2,0.8-0.5,1.1-0.7l1.1-0.8
			c0.3-0.3,0.7-0.5,1.1-0.8l1-0.9l0.5-0.4l0.1-0.1l0,0c0,0,0,0,0,0l0,0l0.1-0.1l0.2-0.3l0.5-0.5c0.2-0.2,0.3-0.3,0.4-0.5
			c0.3-0.3,0.5-0.7,0.8-1c0.3-0.3,0.5-0.7,0.8-1.1c1-1.4,1.7-3,2.3-4.6c0.6-1.6,1-3.2,1.3-4.7c0.3-1.5,0.5-3,0.7-4.4
			c0.4-2.8,0.7-5.2,1.2-6.8c0.3-0.8,0.6-1.4,0.9-1.8c0.1-0.2,0.3-0.3,0.4-0.4c0.1-0.1,0.1-0.1,0.1-0.1c0,0-0.2,0.2-0.4,0.6
			c-0.2,0.4-0.4,1-0.5,1.8c-0.1,0.8-0.1,1.8-0.1,2.9c0,1.1,0.1,2.4,0,3.9c0,1.4,0,3-0.2,4.7c-0.2,1.7-0.5,3.4-1,5.2
			c-0.5,1.8-1.3,3.6-2.3,5.3c-0.3,0.4-0.5,0.8-0.8,1.2c-0.3,0.4-0.6,0.8-0.9,1.2c-0.2,0.2-0.3,0.4-0.5,0.6l-0.5,0.5l-0.2,0.3
			l-0.1,0.1l0,0l0,0l0,0l-0.1,0.1l-0.6,0.5l-1.1,1c-0.4,0.3-0.8,0.6-1.2,0.9c-0.4,0.3-0.8,0.6-1.2,0.9c-0.4,0.3-0.8,0.5-1.2,0.8
			c-0.4,0.2-0.8,0.5-1.2,0.7c-0.4,0.2-0.9,0.4-1.3,0.6c-0.4,0.2-0.8,0.4-1.3,0.6c-0.4,0.2-0.9,0.4-1.3,0.5c-0.8,0.4-1.7,0.7-2.5,0.9
			c-0.8,0.3-1.6,0.5-2.4,0.8c-0.8,0.2-1.6,0.4-2.3,0.6c-0.8,0.2-1.5,0.3-2.2,0.5c-0.7,0.1-1.4,0.3-2,0.3c-0.6,0.1-1.3,0.2-1.8,0.2
			c-1.2,0.1-2.2,0.2-3,0.2c-0.8,0-1.5,0-1.9,0C324.8,99.6,324.5,99.6,324.5,99.6z"/>
		<path class="st2" d="M324,124.3c0,0,0-0.5,0.1-1.4c0-0.4,0.1-1,0.2-1.5c0.1-0.6,0.1-1.3,0.3-2c0.1-0.7,0.2-1.5,0.4-2.4
			c0.2-0.8,0.3-1.7,0.5-2.6c0.2-0.9,0.4-1.8,0.7-2.8c0.1-0.5,0.3-0.9,0.4-1.4c0.2-0.5,0.3-1,0.5-1.4c0.2-0.5,0.4-0.9,0.6-1.4l0-0.1
			l0,0l0,0c0,0,0,0,0-0.1l0,0l0.1-0.2l0.2-0.3l0.2-0.3c0.1-0.1,0.2-0.2,0.3-0.3l0.5-0.6c0.2-0.2,0.4-0.4,0.5-0.5
			c0.4-0.4,0.8-0.6,1.1-1c0.8-0.6,1.5-1.1,2.3-1.5c0.7-0.4,1.5-0.8,2.2-1.1c1.4-0.6,2.5-1,3.4-1.3c0.8-0.3,1.3-0.4,1.3-0.4
			s-0.4,0.3-1.2,0.7c-0.4,0.2-0.8,0.5-1.3,0.8c-0.5,0.3-1.1,0.7-1.7,1.1c-0.6,0.4-1.3,0.8-1.9,1.3c-0.7,0.5-1.3,1-2,1.6
			c-0.3,0.3-0.7,0.6-0.9,0.9l-0.4,0.5l-0.4,0.5c-0.1,0.1-0.1,0.2-0.2,0.2l-0.2,0.3l-0.2,0.3l-0.1,0.2l0,0c0.1-0.1,0,0,0,0l0,0l0,0
			l0,0.1c-0.2,0.4-0.4,0.9-0.5,1.3c-0.2,0.4-0.3,0.9-0.5,1.3c-0.2,0.5-0.3,0.9-0.5,1.4c-0.3,0.9-0.6,1.8-0.8,2.7
			c-0.2,0.9-0.5,1.7-0.7,2.5c-0.2,0.8-0.5,1.6-0.7,2.3c-0.4,1.4-0.8,2.6-1.1,3.4C324.1,123.8,324,124.3,324,124.3z"/>
		<path class="st2" d="M347.2,45.6c0,0-5.5-23.5,20.5-30.8c0,0,1.8,23.9-16.2,32.8c0,0,10-9.3,12.3-23.5C363.8,24,351,23,347.2,45.6
			z"/>
		<path class="st2" d="M365.4,24.2c0,0-1.6,4.5,0.1,4.9c15.7,3.9,40.9,14.5,51.7,40.6c15.3,36.9,3.6,74.2,3.6,74.2
			S460.5,45.6,365.4,24.2z"/>
		<path class="st2" d="M372.1,35.6c0,0,28.5,13.1,37.3,47.5c2.9,11.4,2.3,22.8,1.4,32.9c-2.1,23.5-9.9,40.6-9.9,40.6
			S451.4,71.6,372.1,35.6z"/>
		<path class="st2" d="M334,69.8c0,0-12.3,5-10,8.1c2.3,3.1,5.1,0.1,6.1-2.8C330.7,72.9,336,70.5,334,69.8z"/>
		<path class="st2" d="M303.5,117.9c0,0-0.7-7.7,4.6-6.2l-0.4,1.9C307.7,113.6,305,111.9,303.5,117.9z"/>
		<path class="st2" d="M346,26c0,0-16.2-5.6-21.8,13.9c-6.5,22.8,9,30.1,5.6,44.9c0,0,4.2-4.1,2.2-18.7
			C330.1,51.5,326.6,35.4,346,26z"/>
		<path class="st2" d="M357.2,22.4c0,0-16.9-5.8-23.3,9.6c-7.6,18.4,7.6,25.3,4.7,37.7c0,0,3.5-3.4,1.8-15.7
			C338.8,41.8,340.4,27.4,357.2,22.4z"/>
		<path class="st2" d="M358.6,48.7c0,0,0.3,0.1,1,0.4c0.6,0.3,1.6,0.7,2.8,1.3c1.2,0.6,2.6,1.4,4.3,2.5c1.6,1,3.5,2.3,5.5,3.8
			c3.9,3.1,8.4,7.2,12.6,12.6c4.2,5.4,8.2,12.1,11.2,19.9c1.5,3.9,2.8,8,3.7,12.4l0.2,0.8l0.2,0.8l0.2,0.8l0.2,0.9
			c0.2,1.2,0.4,2.3,0.5,3.4c0.3,2.3,0.5,4.6,0.6,7c0.2,4.8,0,9.7-0.6,14.6c-0.6,5-1.7,10-3.3,15.1c-3.1,10.1-8.5,20.1-16.4,28.7
			c-3.9,4.3-8.5,8.2-13.5,11.5c-5,3.3-10.5,6.1-16.2,8.2c-11.4,4.3-23.7,6.2-35.4,6.5c-5.9,0.2-11.8,0.1-17.5-0.3
			c-5.8-0.4-11.4-1.2-16.9-2.2c-5.5-1-10.8-2.3-15.9-3.7c-5.1-1.4-10-2.9-14.7-4.4c-4.7-1.5-9.3-3-13.7-4.4
			c-4.4-1.4-8.6-2.7-12.8-3.7c-4.1-1.1-8.1-2-11.9-2.7c-3.8-0.7-7.5-1.3-10.9-1.6c-6.9-0.7-13-0.8-18-0.6c-5,0.2-9,0.5-11.7,0.9
			c-1.3,0.1-2.4,0.3-3.1,0.4c-0.7,0.1-1.1,0.1-1.1,0.1s0.3-0.1,1-0.3c0.7-0.2,1.7-0.5,3-0.8c2.6-0.6,6.5-1.5,11.6-2.2
			c2.5-0.3,5.4-0.7,8.4-0.9c3.1-0.2,6.5-0.3,10-0.3c3.6,0.1,7.4,0.3,11.4,0.7c4,0.4,8.2,1.1,12.5,1.9c4.3,0.8,8.8,1.9,13.3,3
			c4.6,1.1,9.2,2.4,14,3.7c4.8,1.3,9.6,2.6,14.6,3.7c5,1.2,10.1,2.2,15.3,3c10.4,1.6,21.3,2.3,32.3,1.7c0.7,0,1.4-0.1,2-0.1
			c0.7,0,1.3-0.1,2.1-0.1l2.1-0.2l2-0.2c2.7-0.3,5.4-0.6,8.1-1.1c5.4-1,10.6-2.4,15.7-4.3c10.1-3.8,19.1-9.6,26.1-17
			c3.5-3.7,6.6-7.7,9.1-12c2.5-4.3,4.6-8.7,6.2-13.2c1.6-4.5,2.8-9.1,3.6-13.7c0.8-4.6,1.2-9.1,1.3-13.5c0-2.2,0-4.4-0.2-6.5
			c-0.1-1.1-0.2-2.1-0.3-3.2l-0.1-0.8l-0.1-0.8l-0.1-0.8l-0.1-0.8c-0.6-4.2-1.6-8.1-2.7-11.9c-2.3-7.5-5.4-14.1-8.9-19.6
			c-3.5-5.5-7.3-9.9-10.8-13.2c-3.5-3.3-6.5-5.7-8.7-7.1C359.9,49.3,358.6,48.7,358.6,48.7z"/>
	</g>
	<g>
		<path class="st5" d="M60.5,142.9c0.2,1.5,0.4,3.1,0.5,4.6c0.1,1.5,0,3.1-0.3,4.6c-0.2,1.6-0.6,3.1-1.1,4.6
			c-0.5,1.5-1.2,2.9-2.1,4.2c-1.1,1.6-2.4,3.1-3.9,4.4c-1.5,1.3-3.1,2.4-4.8,3.2c-0.7,0.4-1.4,0.7-2.2,0.9c-0.7,0.2-1.5,0.4-2.2,0.5
			c-0.6,0.1-1.2,0.2-1.8,0.2c-0.6,0-1.2,0-1.8,0c-1.1-0.1-2.2-0.3-3.3-0.6c-1.1-0.3-2.1-0.7-3.1-1.2c-2.2-1-4.1-2.3-5.9-4
			c-1.8-1.6-3.2-3.5-4.2-5.7c-0.5-1.1-0.9-2.1-1.2-3.3c-0.3-1.1-0.4-2.3-0.4-3.5c0-1.3,0.2-2.6,0.5-3.7c0.1-0.3,0.2-0.6,0.3-0.9
			c0.1-0.3,0.2-0.6,0.3-0.9c0.2-0.4,0.3-0.6,0.4-0.8l0.2-0.4c0.1-0.1,0.2-0.2,0.2-0.4c0-0.1,0.1-0.3,0.2-0.4
			c0.1-0.2,0.2-0.3,0.3-0.4l0.4-0.6c0.2-0.4,0.5-0.8,0.9-1.1c0.4-0.4,0.7-0.7,1.1-1c0.4-0.3,0.8-0.6,1.2-0.8
			c0.4-0.2,0.9-0.4,1.3-0.6c0.2-0.1,0.5-0.2,0.8-0.2c0.3,0,0.6,0,0.8,0.3c0.2,0.2,0.2,0.5,0,0.8c-0.2,0.3-0.3,0.5-0.4,0.7
			c0,0-0.1,0.1-0.1,0.1c0,0,0,0.1-0.1,0.1c0,0.1-0.1,0.2-0.1,0.3c0,0.1-0.1,0.2-0.1,0.3c-0.4,0.7-0.7,1.5-0.9,2.4
			c-0.4,2.2-0.4,4.3,0.2,6.3c0,0.1,0,0.2,0.1,0.3c0.7,2.2,1.8,4.1,3.3,5.9c1.5,1.8,3.2,3.3,5.1,4.5c1.2,0.8,2.6,1.4,3.9,1.9
			c1.4,0.5,2.7,0.8,4.1,0.9c0.9,0,1.8-0.1,2.8-0.2c0.3,0,0.6-0.1,0.8-0.3c0.1,0,0.2,0,0.2-0.1h0.1c0,0,0.1-0.1,0.1-0.1
			c0,0,0.1,0,0.1-0.1c0,0,0.1,0,0.1-0.1l0.4-0.4c0-0.1,0.1-0.2,0.1-0.3c0-0.1,0.1-0.2,0.1-0.3c0.3-0.4,0.5-0.7,0.6-0.9
			c0.6-1.2,1.1-2.5,1.5-3.9c0.6-2.8,0.8-5.7,0.4-8.6c-0.3-2.9-0.9-5.7-1.7-8.5c-0.5-1.6-1-3.1-1.5-4.7c-0.6-1.5-1.2-3.1-1.8-4.6
			c-0.7-1.5-1.4-3-2.1-4.5c-0.7-1.5-1.5-2.9-2.3-4.4c-0.7-1.1-1.3-2.2-2-3.3c-0.6-1.1-1.3-2.2-2.1-3.3c-0.5,0.2-1.1,0.4-1.6,0.5
			c-0.5,0.1-1.1,0.3-1.6,0.4c-1.4,0.3-2.8,0.5-4.2,0.6c-1.4,0.1-2.8,0.2-4.3,0.3c-0.7,0-1.3,0.1-2,0.1c-0.7,0-1.3,0.1-2,0.2
			c-0.5,0-0.9,0.1-1.4,0.1c-0.4,0-0.9,0.1-1.4,0.2l-0.1,0.1c-0.2,0.1-0.4,0.2-0.5,0.2c-0.1,0-0.3,0.1-0.5,0.1
			c-0.2,0.1-0.5,0.2-0.8,0.2c-0.3,0-0.6,0-0.7-0.3c-0.2-0.2-0.2-0.5-0.1-0.8s0.3-0.5,0.4-0.6c0.5-0.8,1.1-1.4,1.9-2
			c1.1-0.7,2.1-1.3,3.1-1.7c0.1,0,0.2,0,0.2-0.1h0.1l-0.7,0.3l0.8-0.4c0.2,0,0.4-0.1,0.6-0.1c0.2,0,0.3-0.1,0.5-0.1
			c1.2-0.3,2.5-0.5,3.7-0.5c1.2-0.1,2.5-0.2,3.7-0.3c1.4-0.1,2.8-0.2,4.1-0.3c1.3-0.1,2.7-0.3,4.1-0.6c0.4,0,0.9-0.2,1.4-0.4
			c0.4-0.2,0.8-0.4,1.1-0.5c0.4-0.2,0.7-0.3,1.1-0.3c0.3,0,0.6,0,0.9,0.3c0.5,0.7,0.9,1.4,1.4,2.1c0.5,0.7,0.9,1.4,1.3,2.1
			c3.5,5.7,6.3,11.6,8.5,17.9c0.6,1.7,1.1,3.4,1.5,5C59.8,139.5,60.2,141.2,60.5,142.9z"/>
		<path class="st5" d="M93.5,138.5c0.1,0.5,0.3,1.1,0.4,1.6c0.1,0.6,0.1,1.1,0.1,1.7c0,1.2-0.1,2.5-0.4,3.7c-0.6,2.9-1.6,5.7-3,8.4
			c-0.8,1.5-1.7,3-2.8,4.5c-1,1.4-2.2,2.8-3.5,4c-1.3,1.3-2.9,2.4-4.6,3.4c-0.8,0.5-1.7,0.9-2.6,1.3c-0.9,0.4-1.8,0.6-2.8,0.7
			c-1.2,0.2-2.5,0.1-3.7-0.4c-1.2-0.4-2.4-1.2-3.5-2.2c-0.5-0.4-0.9-0.9-1.3-1.4c-0.4-0.5-0.8-1-1-1.6c-0.2-0.4-0.4-0.8-0.6-1.2
			c-0.1-0.4-0.3-0.8-0.4-1.2c-0.7-2.2-1.1-4.4-1.2-6.6c-0.1-2.3,0-4.5,0.2-6.7c0.2-2.4,0.7-4.8,1.4-7.2c0.3-1.1,0.7-2.1,1.2-3.1
			c0.4-1,1-2,1.7-2.9c1-1.4,2.1-2.6,3.5-3.7c1.4-1.1,2.9-1.9,4.5-2.5c0.5-0.2,1.1-0.4,1.6-0.4c0.6,0,1.1,0,1.7,0c0.1,0,0.2,0,0.2,0
			c0,0,0.1,0,0.2,0l0.1-0.1c0.9-0.3,1.7-0.6,2.6-0.7c0.9-0.1,1.8,0,2.7,0.3c1.2,0.4,2.3,1,3.2,1.9c0.9,0.9,1.8,1.8,2.5,2.8
			C91.6,133.3,92.7,135.7,93.5,138.5z M87.1,146.3c0-0.6,0-1.2-0.1-1.8c-0.1-0.6-0.2-1.2-0.4-1.7c-0.3-1.1-0.7-2.1-1.2-3.1
			c-0.5-1-1-1.9-1.6-2.8c-0.5-0.8-1.1-1.6-1.7-2.3c-0.6-0.7-1.3-1.4-2.2-1.9c-0.7,0.5-1.3,0.8-2,1.1c-0.3,0.1-0.6,0.1-0.8,0.1
			c-0.2,0-0.5-0.1-0.7-0.3c-0.2-0.1-0.3-0.2-0.4-0.3l-0.4-0.2c-0.3,0.2-0.7,0.5-1.1,0.7c-0.4,0.2-0.8,0.4-1.2,0.5
			c-0.2,0.1-0.5,0.2-0.8,0.2c-0.3,0-0.6,0-0.7-0.3l-0.1-0.1c-0.5,1.1-0.9,2.4-1.2,3.7c-0.1,0.7-0.3,1.3-0.4,1.9
			c-0.1,0.6-0.2,1.3-0.3,1.9c-0.2,2.2-0.3,4.3-0.3,6.5c0,2.2,0.4,4.3,0.9,6.4c0.3,1,0.7,2,1.2,2.9c1,1.5,2.2,2.8,3.6,3.7
			c0.9,0.6,1.9,0.9,3.1,1.1c0.2,0,0.4,0,0.6,0c0.2,0,0.4-0.1,0.6-0.1c0.1,0,0.2,0,0.2,0c0,0,0.1,0,0.2,0c0,0,0-0.1,0.1-0.1
			c0,0,0.1,0,0.1,0c0,0,0.1,0,0.1,0v-0.1h0.1l0.1-0.1c0.1-0.1,0.2-0.2,0.2-0.2c0,0,0.1-0.1,0.2-0.2c0,0,0-0.1,0-0.1c0,0,0,0,0-0.1
			c0.1-0.1,0.3-0.3,0.5-0.6l0.4-0.4c0-0.1,0.1-0.2,0.1-0.2c0,0,0.1-0.1,0.1-0.1c0.3-0.4,0.6-0.9,0.9-1.3c0.3-0.5,0.6-0.9,0.9-1.4
			c0.6-1.1,1.1-2.2,1.5-3.4c0.4-1.2,0.8-2.3,1.2-3.5c0.1-0.7,0.3-1.3,0.4-2C87,147.6,87.1,147,87.1,146.3z"/>
		<path class="st5" d="M127.2,144.8c0.1,1.6,0.2,3.2,0.3,4.8c0,1.6,0,3.2,0,4.8c0,1.5-0.1,3.1-0.1,4.6c0,1.5-0.1,3-0.2,4.6
			c-0.1,1.2-0.2,2.5-0.2,3.7c0,1.2-0.1,2.5-0.1,3.7c0,0.3-0.1,0.7-0.4,1c-0.2,0.3-0.5,0.6-0.6,0.8c-0.4,0.4-0.8,0.8-1.2,1.2
			c-0.4,0.3-0.9,0.6-1.3,0.9c-0.1,0.1-0.3,0.2-0.7,0.4c-0.4,0.2-0.8,0.3-1.2,0.4c-0.4,0.1-0.7,0.2-1,0.1c-0.3,0-0.5-0.3-0.5-0.6
			v-0.1c0-1.2,0-2.5,0-3.7c0-1.2,0.1-2.5,0.2-3.7c0.1-1.5,0.2-3.1,0.2-4.6c0-1.5,0.1-3,0.1-4.6c0-1.6,0-3.2,0-4.8
			c0-1.6-0.1-3.2-0.3-4.8c-0.1-1.4-0.3-2.9-0.5-4.3c-0.2-1.4-0.5-2.8-0.9-4.2c-0.2-0.8-0.5-1.6-0.9-2.4c-0.3-0.8-0.7-1.5-1.2-2.3
			c-0.3-0.5-0.7-1-1.1-1.5c-0.4-0.5-0.8-0.9-1.4-1.2c-1,1.9-1.7,3.8-2.3,5.9c-0.6,2.1-1.2,4.1-1.7,6.2c-0.3,1.2-0.6,2.5-0.8,3.8
			c-0.3,1.3-0.5,2.6-0.8,3.9c-0.3,1.8-0.6,3.5-0.9,5.3c-0.3,1.8-0.5,3.5-0.6,5.4c0,0.4-0.2,0.7-0.4,1c-0.2,0.3-0.4,0.6-0.6,0.8
			c-0.4,0.4-0.8,0.8-1.2,1.2c-0.4,0.3-0.9,0.6-1.3,0.9c-0.1,0.1-0.3,0.2-0.7,0.4c-0.4,0.2-0.8,0.3-1.2,0.4c-0.4,0.1-0.7,0.2-1,0.1
			c-0.3,0-0.5-0.3-0.5-0.6c0-2.5-0.1-5-0.2-7.5c-0.1-2.5-0.3-4.9-0.5-7.4c-0.1-1.8-0.3-3.7-0.5-5.5c-0.2-1.8-0.3-3.7-0.5-5.6
			c-0.1-0.8-0.2-1.6-0.3-2.4c-0.1-0.8-0.2-1.6-0.3-2.4c0-0.4-0.1-0.7-0.1-1.1c0-0.3-0.1-0.7-0.1-1.1c0-0.2,0-0.4,0-0.5
			c0-0.2,0-0.3,0-0.5c0-0.1-0.1-0.2-0.1-0.4c0-0.2,0-0.4,0.1-0.6c0-0.1-0.1-0.3-0.1-0.4c0-0.1,0-0.3-0.1-0.4c0-0.3,0.1-0.6,0.3-0.9
			c0.3-0.3,0.5-0.6,0.6-0.8c0.7-0.7,1.5-1.3,2.3-1.9c0.1-0.1,0.4-0.2,0.7-0.4c0.3-0.2,0.7-0.3,1-0.4c0.4-0.1,0.7-0.1,1-0.1
			c0.3,0.1,0.5,0.3,0.5,0.6c0,0.2,0,0.4,0.1,0.5c0.1,0.1,0.2,0.3,0.2,0.5c0.2,2,0.5,3.9,0.7,5.8c0.2,1.9,0.5,3.9,0.6,5.8
			c0.2-0.5,0.5-1.1,0.6-1.6c0.2-0.6,0.4-1.1,0.6-1.6c0.5-1,1-2,1.5-3c0.6-1,1.2-1.8,1.9-2.7c0.5-0.6,1.1-1.2,1.8-1.8
			c0.6-0.6,1.3-1,2.1-1.5c0.6-0.3,1.2-0.6,1.8-0.9s1.3-0.4,2-0.4c0.4,0,0.7,0,1.1,0.1c0.3,0,0.7,0.2,1.1,0.4
			c0.4,0.2,0.7,0.5,1.1,0.8c0.3,0.3,0.6,0.6,0.9,1c0.8,1,1.5,2,2,3.2c0.5,1.2,0.9,2.4,1.3,3.6c0.4,1.4,0.7,2.8,0.9,4.3
			C126.9,142,127.1,143.4,127.2,144.8z"/>
		<path class="st5" d="M216.2,117.1c0.3,0.1,0.5,0.3,0.5,0.6c0,0.3-0.1,0.6-0.4,0.9c-0.2,0.3-0.5,0.6-0.7,0.9s-0.4,0.5-0.5,0.6
			c-0.9,0.8-1.7,1.3-2.5,1.7c-0.3,0.1-0.6,0.3-0.9,0.4c-0.3,0.1-0.7,0.1-1,0c-2.3-0.5-4.5-1-6.7-1.7c-2.2-0.6-4.4-1.2-6.7-1.8
			c-1.4-0.4-2.9-0.7-4.3-1.1c-1.4-0.3-2.9-0.6-4.4-0.9c0,0.5,0.1,1.1,0.1,1.6c0,0.5,0,1.1,0.1,1.6c0,3.3,0,6.5-0.1,9.8
			c-0.1,3.2-0.2,6.5-0.1,9.8c0,3.4,0.2,6.7,0.5,10c0.3,3.3,0.9,6.6,1.8,9.8c0.2,0.6,0.4,1.2,0.5,1.7s0.4,1.1,0.6,1.7
			c0.1,0.4,0.1,0.7-0.1,0.9c0,0.1-0.1,0.2-0.1,0.3c0,0.1-0.1,0.2-0.1,0.3c-0.5,0.8-1.2,1.5-2,2.1c-0.4,0.3-0.8,0.6-1.2,0.8
			c-0.4,0.2-0.9,0.4-1.3,0.6c-0.2,0-0.5,0.1-0.8,0.2s-0.6,0-0.8-0.3c-0.6-1.1-1-2.3-1.4-3.5c-0.3-1.2-0.6-2.5-0.9-3.7
			c-0.5-2.6-0.9-5.2-1.1-7.8c-0.3-3.5-0.4-6.9-0.4-10.3c0-3.4,0.1-6.9,0.2-10.3c0-1.5,0-3,0-4.5c0-1.5,0-3,0-4.5
			c0-1.2,0-2.3-0.1-3.5c-0.1-1.2-0.2-2.3-0.5-3.5c0-0.2,0-0.3,0.1-0.4c-1.2-0.2-2.3-0.3-3.5-0.4c-1.2-0.1-2.4-0.2-3.6-0.3
			c-2.6,0-5.2,0-7.8,0.2c-0.2,0.2-0.5,0.5-0.8,0.6c-0.3,0.2-0.5,0.4-0.8,0.5c-0.3,0.2-0.6,0.5-1,0.6c-0.4,0.2-0.8,0.3-1.2,0.3
			c-0.9,0-1.7,0-2.6,0c-0.9,0-1.7,0-2.6,0.1c-0.2,0-0.5,0-0.7-0.1c-0.2-0.1-0.3-0.3-0.3-0.5c0-0.4,0.2-0.8,0.4-1.1
			c0.6-0.8,1.2-1.5,2-2c0.6-0.4,1.2-0.8,1.7-1.1c3.2-1.3,6.6-2.2,10.3-2.7c3.9-0.5,7.9-0.5,11.8-0.1c3.9,0.4,7.8,1,11.7,1.8
			c1.9,0.4,3.8,0.8,5.7,1.3c1.9,0.5,3.8,1,5.7,1.5c1.7,0.5,3.5,0.9,5.2,1.4C212.8,116,214.5,116.5,216.2,117.1z"/>
		<path class="st5" d="M254.7,153.8c0,1.4,0,2.9,0.1,4.4c0,1.5,0.2,2.9,0.4,4.3c0,0.2,0,0.5-0.1,0.6c-0.1,0.2-0.2,0.4-0.3,0.6
			c-0.1,0.1-0.2,0.2-0.3,0.3c-0.1,0.1-0.2,0.2-0.3,0.3c-0.4,0.4-0.8,0.8-1.2,1.2c-0.4,0.3-0.9,0.6-1.3,0.9c-0.4,0.2-0.8,0.4-1.2,0.6
			c-0.4,0.2-0.8,0.3-1.2,0.4c-0.4,0.1-0.7,0-0.9-0.3l-0.2-0.4c-0.1-0.3-0.1-0.5-0.1-0.5V166c-0.1-0.2-0.2-0.5-0.3-0.7
			c-0.1-0.2-0.2-0.4-0.4-0.6c-0.2-0.2-0.3-0.5-0.1-0.8c0.2-0.3,0.3-0.6,0.4-0.7c0.1-0.1,0.1-0.2,0.1-0.2c-0.1-1.1-0.1-2.2-0.1-3.4
			c0-1.2,0-2.3,0-3.5c0-1.7,0-3.3,0-5c0-1.7,0-3.3-0.1-5c-0.1-1.5-0.2-3.1-0.4-4.6c-0.2-1.5-0.4-3-0.8-4.4c-0.1-0.2-0.2-0.4-0.2-0.6
			c0-0.2-0.1-0.4-0.2-0.6c-0.4,1.3-0.8,2.6-1.1,3.9c-0.8,3.6-1.5,7.1-1.9,10.8c-0.5,3.6-1.2,7.2-2.3,10.7c-0.1,0.4-0.3,0.8-0.6,1.1
			s-0.6,0.7-0.9,0.9c-0.7,0.7-1.6,1.3-2.7,1.9c-0.1,0-0.3,0.1-0.6,0.3c-0.3,0.1-0.5,0.2-0.8,0.2c-0.3,0-0.5,0-0.8-0.1
			c-0.2-0.1-0.3-0.3-0.3-0.5v-1c0-2.1,0.1-4.1,0.1-6.1c0-2,0-4.1,0-6.1c-0.1-2.5-0.2-5-0.4-7.6c-0.1-1.1-0.3-2.2-0.5-3.3
			c-0.2-1.1-0.4-2.2-0.8-3.2c-0.2-1-0.6-1.9-1-2.8s-1.1-1.7-1.9-2.2c-0.1-0.1-0.2-0.1-0.2-0.1c-0.4,0.9-0.8,1.8-1.1,2.8
			c-0.3,1-0.6,1.9-0.8,2.9c-0.1,0.5-0.2,0.8-0.3,1.1c-0.5,2.5-0.9,5.1-1.3,7.6c-0.3,2.5-0.6,5.1-0.8,7.7c-0.1,1.1-0.3,2.2-0.4,3.3
			c-0.1,1.1-0.2,2.2-0.4,3.3c-0.1,0.8-0.2,1.6-0.3,2.4c-0.1,0.8-0.3,1.6-0.5,2.4c-0.2,0.5-0.5,1-0.9,1.3l-0.7,0.7
			c-0.4,0.4-0.8,0.7-1.2,1c-0.4,0.3-0.9,0.6-1.4,0.8c-0.3,0.1-0.6,0.3-1,0.4c-0.4,0.1-0.7,0.2-1,0.1c-0.3-0.2-0.5-0.4-0.4-0.6
			c-0.9-3.9-1.6-7.8-2-11.7s-0.8-7.8-1-11.7c-0.1-1.5-0.2-3-0.3-4.4c-0.1-1.5-0.1-2.9-0.1-4.4v-3v-1.2v-0.5c0-0.1,0-0.3,0-0.4
			c0-0.1,0.1-0.3,0.1-0.4c0.1-0.2,0.2-0.5,0.4-0.7c0.2-0.2,0.4-0.5,0.5-0.6c0.3-0.4,0.7-0.7,1.1-1.1c0.4-0.3,0.8-0.6,1.2-0.9
			c0.2-0.1,0.6-0.3,1.2-0.6s1.1-0.4,1.5-0.4c0.3,0,0.5,0.1,0.5,0.3c0.1,0.1,0.2,0.3,0.2,0.4v4.2v1.9c0,0.6,0,1.2,0,1.7
			c0,0.6,0.1,1.2,0.1,1.7c0.1,0.7,0.2,1.4,0.2,2.1c0,0.7,0.1,1.4,0.1,2.1c0.2-0.9,0.5-1.7,0.7-2.6c0.2-0.9,0.5-1.7,0.8-2.5
			c0.4-1.1,0.9-2.2,1.4-3.2c0.6-1,1.2-1.9,2-2.7c0.7-0.7,1.5-1.4,2.3-2.1s1.7-1.2,2.6-1.6c0.6-0.3,1.3-0.5,1.9-0.7
			c0.6-0.2,1.3-0.2,2-0.1c0.8,0.1,1.5,0.4,2.1,0.9c0.6,0.5,1.1,1.1,1.5,1.8c0.5,0.9,0.9,1.8,1.2,2.8c0.3,1,0.6,2,0.8,2.9
			c0.1,0.4,0.2,0.7,0.2,1.1c0,0.3,0.1,0.7,0.2,1c0.6-1.3,1.2-2.6,2-3.9c0.8-1.2,1.6-2.4,2.6-3.5c0.4-0.5,0.9-1,1.5-1.4
			c0.6-0.4,1.2-0.8,1.9-1.2c0.3-0.1,0.7-0.2,1.2-0.4c0.5-0.2,0.9-0.1,1.2,0.2c0.9,1.1,1.5,2.2,2.1,3.5c0.5,1.3,0.9,2.6,1.2,4
			c0.3,1.5,0.6,3.1,0.6,4.7c0.1,1.6,0.2,3.1,0.2,4.7c0,1.7,0.1,3.3,0,5C254.6,150.4,254.7,152.1,254.7,153.8z"/>
		<path class="st5" d="M291.8,150.1c0,0.2,0.1,0.5,0.1,0.8c0,0.3,0,0.5,0,0.8c0,0.3-0.1,0.7-0.1,1c0,0.3-0.1,0.6-0.2,0.9
			c-0.3,1.2-0.8,2.4-1.6,3.6c-0.1,0.2-0.2,0.4-0.4,0.6c-0.1,0.2-0.3,0.4-0.4,0.5c-0.6,0.8-1.2,1.5-1.9,2.2c-0.6,0.6-1.3,1.2-1.9,1.7
			c-0.7,0.5-1.4,1-2.1,1.5c-1.1,0.7-2.3,1.3-3.5,1.9c-1.2,0.5-2.5,1-3.7,1.3c-1.2,0.3-2.5,0.6-3.8,0.6c-1.1,0.1-2.2,0.1-3.3,0
			c-1.1-0.1-2.1-0.3-3.2-0.6c-0.9-0.2-1.8-0.6-2.6-1.1c-0.8-0.5-1.6-1.1-2.3-1.8c-0.7-0.8-1.2-1.6-1.5-2.6c-0.4-0.9-0.6-1.9-0.7-2.9
			c0-1.3,0.1-2.7,0.4-4.1c0.2-0.7,0.4-1.4,0.6-2.1c0.2-0.7,0.6-1.3,0.9-2c0.6-0.9,1.3-1.7,2.1-2.5c0.8-0.7,1.6-1.4,2.6-2
			c0.7-0.4,1.4-0.8,2.2-1.1c0.8-0.3,1.6-0.5,2.4-0.6c1-0.1,1.9-0.1,3,0.1c1,0.2,2,0.5,3,0.9c1.1,0.4,2.2,0.9,3.2,1.5
			c1,0.6,2,1.2,3,1.9c0.3,0.2,0.7,0.5,1,0.8c0.3,0.3,0.7,0.5,1.1,0.8v-2.3c0-1.2-0.1-2.4-0.2-3.6c-0.1-1.2-0.3-2.4-0.6-3.6
			c-0.3-1.1-0.8-2-1.3-2.9c-0.5-0.9-1.2-1.6-2.2-2.3c-1.2-0.6-2.5-1-3.9-1.1c-0.2,0-0.5-0.1-0.8,0c-0.3,0-0.5,0.1-0.8,0.1
			c-0.2,0.1-0.4,0.2-0.6,0.2c-0.2,0-0.4,0.1-0.6,0.2c-0.1,0.1-0.3,0.2-0.5,0.2c-0.2,0-0.3,0.1-0.5,0.2c0,0-0.1,0-0.1,0
			c0,0-0.1,0-0.2,0c-0.6,0.2-1.2,0.5-1.8,0.8c-0.6,0.3-1.2,0.6-1.8,0.9l-0.9,0.4l-0.1,0.1c-0.5,0.3-1.1,0.6-1.7,0.9
			c-0.1,0.2-0.3,0.4-0.5,0.5c-0.2,0.2-0.3,0.3-0.5,0.5c-0.4,0.3-0.8,0.6-1.2,0.9c-0.4,0.3-0.9,0.6-1.3,0.8c-0.5,0.2-1,0.4-1.4,0.4
			h-0.6c-0.2-0.1-0.3-0.2-0.4-0.3c-0.1-0.1-0.1-0.2-0.1-0.5c0-0.2,0.1-0.5,0.2-0.7c0.1-0.2,0.2-0.4,0.3-0.5c0.2-0.4,0.5-0.8,0.9-1.2
			l0.8-0.8c0.2-0.1,0.4-0.3,0.5-0.4c0.1-0.1,0.3-0.3,0.5-0.4c0.1-0.1,0.3-0.2,0.4-0.3c0.3-0.2,0.6-0.5,0.9-0.6
			c0.3-0.2,0.6-0.4,0.9-0.6c0.4-0.2,0.8-0.5,1.2-0.8c0.4-0.3,0.9-0.5,1.3-0.8c1.4-0.8,2.9-1.6,4.4-2.3c1.5-0.7,3-1.3,4.6-1.9
			c0.6-0.2,1.3-0.4,1.9-0.6c0.6-0.2,1.3-0.3,2-0.3c0.7,0,1.4,0,2.1,0.1c0.7,0.1,1.4,0.3,2.1,0.5c1.1,0.4,2,0.9,2.8,1.7
			c0.8,0.7,1.4,1.6,1.9,2.6c0.5,1.1,0.9,2.3,1.2,3.5s0.4,2.5,0.5,3.7c0.1,1.4,0.1,2.9,0.1,4.3c0,1.4-0.1,2.9-0.1,4.4
			c0.4-0.1,0.7-0.1,1-0.1C291.7,149.5,291.8,149.7,291.8,150.1z M264.1,139.1C264.1,139,264.1,139,264.1,139.1
			c-0.2,0.2-0.3,0.3-0.3,0.2C263.9,139.3,264,139.2,264.1,139.1z M279.3,161.5c0.2,0,0.4-0.1,0.6-0.1c0.2,0,0.3-0.1,0.5-0.2
			c0.1,0,0.3-0.1,0.4-0.1c0.1,0,0.3-0.1,0.4-0.1l0.3-0.1l1.1-0.4c0,0,0-0.1,0.1-0.1c-0.6-0.7-1.3-1.3-1.9-1.9
			c-0.6-0.6-1.3-1.2-2-1.8c-0.8-0.7-1.7-1.4-2.6-2.1c-0.9-0.6-1.8-1.3-2.8-1.9c-1.2-0.7-2.4-1.3-3.6-1.9c-1.3-0.6-2.6-1-3.9-1.1
			c-0.1,0.3-0.1,0.5-0.1,0.6c-0.2,1-0.4,1.9-0.4,2.9c0,1,0,2,0.3,2.9c0.6,1.8,1.7,3.2,3.3,4.2c0.9,0.5,1.9,0.9,2.9,1.2
			c1,0.3,2,0.4,3,0.5C276.3,161.9,277.8,161.8,279.3,161.5z"/>
		<path class="st5" d="M341.8,155.9c0.1,0.2,0.1,0.5,0,0.8c-0.1,0.3-0.3,0.5-0.4,0.7c-0.3,0.5-0.7,1-1,1.4c-0.4,0.4-0.8,0.8-1.2,1.3
			l-0.3,0.3l-1.1,0.9c-0.1,0.1-0.2,0.2-0.3,0.3c-0.1,0.1-0.2,0.2-0.3,0.3c-1.4,1.1-3,1.8-4.8,2.4c-1.2,0.4-2.4,0.6-3.5,0.6
			c-1.3,0-2.7,0-4-0.3c-1.3-0.2-2.6-0.5-3.9-0.8c-1.4-0.4-2.7-0.8-4.1-1.3c-1.3-0.5-2.7-1-4-1.4c-1.3-0.5-2.6-1-3.9-1.5
			c-1.3-0.5-2.6-0.9-4-1.4c-0.5-0.2-1-0.4-1.5-0.5c-0.5-0.1-1-0.3-1.5-0.4c0.2,1.6,0.4,3.2,0.6,4.8c0.2,1.6,0.4,3.2,0.6,4.8
			c0,0.3-0.1,0.6-0.3,1c-0.3,0.4-0.5,0.6-0.7,0.8c-0.4,0.4-0.8,0.8-1.2,1.2c-0.4,0.3-0.9,0.6-1.3,0.9c-0.3,0.2-0.7,0.4-1.1,0.6
			c-0.4,0.2-0.8,0.3-1.3,0.3c-0.4,0.1-0.7,0-0.9-0.2c-0.4-1.2-0.7-2.3-1-3.5c-0.3-1.2-0.5-2.4-0.7-3.7c-0.2-2.2-0.4-4.3-0.4-6.4
			c0-2.1-0.1-4.3-0.1-6.4c0-1.5,0-3.1,0-4.6c0-1.6-0.1-3.1-0.4-4.6c-0.1-1.2-0.2-2.3-0.4-3.4c-0.2-1.1-0.3-2.3-0.4-3.4
			c0-0.5-0.1-0.9-0.1-1.4c0-0.5,0-0.9,0-1.4c0-0.2,0.1-0.5,0.1-0.7c0-0.2,0.1-0.4,0.2-0.7c0.2-0.4,0.5-0.8,0.8-1.2
			c0.3-0.3,0.6-0.7,1-1c0.3-0.3,0.6-0.5,0.8-0.7c0.3-0.2,0.6-0.4,0.9-0.6c0.7-0.5,1.4-0.9,2.3-1c0.4-0.1,0.7-0.1,1.1,0.1
			c0.3,0.2,0.7,0.5,1,0.8c0.2,0.2,0.2,0.5,0.1,0.8c-0.1,0.3-0.3,0.6-0.4,0.6c-0.4,0.5-0.8,1-1.2,1.4c0,0.1,0.1,0.2,0.1,0.4
			c0,1.1,0.2,2.3,0.4,3.5c0,0.3,0.1,0.7,0.1,1c0,0.3,0.1,0.7,0.2,1.1c0.1-0.1,0.2-0.2,0.3-0.3c0.1-0.1,0.2-0.2,0.3-0.3
			c0.7-0.7,1.4-1.3,2.2-1.9c0.8-0.6,1.6-1.1,2.4-1.6c0.8-0.4,1.6-0.8,2.5-1.2s1.7-0.7,2.6-0.9c1.1-0.2,2.1-0.4,3.2-0.4
			c1.1,0,2,0.3,3,0.9c0.6,0.4,1.1,1,1.3,1.8c0.3,0.7,0.4,1.5,0.5,2.2c0,1,0,1.9-0.3,2.9c-0.2,1-0.5,1.9-0.9,2.8
			c-0.9,2.4-2.1,4.4-3.5,6.2c-0.8,1-1.7,2-2.6,2.9c-0.9,0.9-1.8,1.8-2.8,2.6c0.2,0.1,0.6,0.2,1.1,0.3c1.3,0.4,2.6,0.8,3.9,1.3
			c1.3,0.5,2.5,1,3.8,1.4c1.4,0.5,2.7,1,4.1,1.5c1.3,0.5,2.7,0.9,4.1,1.4c1.2,0.4,2.4,0.7,3.6,1c1.2,0.3,2.5,0.4,3.7,0.5
			c0.4,0,0.9,0,1.3,0c0.5,0,0.9-0.1,1.4-0.2h0.1c0.5-0.6,1.1-1.2,1.7-1.7c0.4-0.3,0.8-0.6,1.2-0.8c0.4-0.2,0.9-0.4,1.3-0.6
			c0.2-0.1,0.5-0.2,0.8-0.2C341.3,155.6,341.6,155.7,341.8,155.9z M302.4,141.7c-0.4,1.6-0.6,3.2-0.7,4.8c-0.1,1.6-0.1,3.2,0,4.9
			c0.4-0.2,0.8-0.3,1.2-0.4c0.2,0,0.5,0,0.6,0c0.2,0,0.4-0.1,0.6-0.1c0.1,0,0.2-0.1,0.4-0.1c0.1,0,0.3-0.1,0.4-0.1
			c0.1,0,0.2-0.1,0.2-0.1s0.1,0,0.2-0.1c0.2-0.1,0.3-0.1,0.4-0.1c0.1,0,0.2-0.1,0.2-0.1c0,0,0.1-0.1,0.2-0.1c0.1,0,0.2,0,0.3-0.1
			c0,0,0.1-0.1,0.1-0.1c0-0.1,0.2-0.2,0.4-0.3c0.1-0.1,0.2-0.2,0.3-0.2c0.1,0,0.2-0.1,0.3-0.2c0,0,0.1-0.1,0.1-0.1
			c0,0,0-0.1,0.1-0.1c0.1,0,0.2-0.1,0.2-0.1c0,0,0.1-0.1,0.2-0.2c0.1-0.1,0.2-0.2,0.3-0.3c0.1-0.1,0.2-0.2,0.3-0.3c0,0,0-0.1,0-0.1
			c0,0,0,0,0-0.1c0.5-0.7,1-1.4,1.5-2.3c0.8-1.4,1.3-2.8,1.7-4.1c0.1-0.7,0.2-1.3,0.3-2c0-0.7,0-1.3-0.2-2c-0.3-0.8-0.7-1.5-1.4-1.9
			c-0.2-0.1-0.5-0.2-0.8-0.3c-0.3,0-0.5-0.1-0.8-0.1c-0.2,0-0.5,0-0.8,0c-0.3,0-0.5,0.1-0.8,0.1l-0.9,0.2c-0.1,0-0.3,0.1-0.5,0.2
			h-0.1c-0.1,0-0.2,0.1-0.3,0.1c-0.1,0-0.2,0.1-0.3,0.1c0,0-0.1,0-0.1,0c0,0-0.1,0-0.1,0l-0.1,0.1c-0.1,0.1-0.2,0.3-0.4,0.4
			c-0.1,0.2-0.2,0.3-0.3,0.4c-0.2,0.4-0.4,0.6-0.5,0.8c-0.3,0.7-0.6,1.3-0.8,2C302.8,140.3,302.6,141,302.4,141.7z M306.7,149.8
			c0,0-0.1,0-0.1,0.1c0,0-0.1,0-0.1,0c0,0,0,0-0.1,0l0.1-0.1L306.7,149.8l-0.1,0.1C306.6,149.9,306.6,149.9,306.7,149.8L306.7,149.8
			z M335.6,159.4c-0.3,0.2-0.5,0.3-0.4,0.3C335.3,159.6,335.4,159.6,335.6,159.4L335.6,159.4z"/>
		<path class="st5" d="M368.8,161.8c0.2,0.2,0.3,0.5,0.1,0.8c-0.2,0.4-0.3,0.6-0.4,0.7c-0.5,0.8-1.2,1.5-2,2.1
			c-0.4,0.3-0.8,0.6-1.2,0.8c-0.4,0.2-0.9,0.4-1.4,0.6c-0.2,0.1-0.5,0.2-0.8,0.2s-0.5-0.1-0.8-0.3c-0.2-0.2-0.5-0.4-0.8-0.6
			c-0.3-0.1-0.6-0.3-0.9-0.5c-1-0.6-2.1-1.2-3.1-1.7c-1.1-0.5-2.2-0.9-3.3-1.2c-1.1-0.3-2.2-0.6-3.4-0.8c-1.2-0.2-2.3-0.3-3.5-0.4
			c-1.2,0-2.4,0-3.6,0.1c-1.2,0.1-2.4,0.3-3.6,0.5c-0.6,0.1-1.2,0.3-2,0.6c-0.2,0.1-0.4,0.2-0.5,0.2c-0.2,0-0.3,0.1-0.5,0.2h-0.1
			c-0.1,0-0.2,0.1-0.3,0.1c-0.1,0-0.2,0.1-0.3,0.1c-0.2,0.1-0.4,0.2-0.5,0.3c-0.1,0.1-0.3,0.2-0.4,0.3l-0.4,0.2
			c-0.2,0.1-0.3,0.2-0.4,0.3c-0.1,0.1-0.3,0.2-0.4,0.3c-0.1,0.1-0.3,0.2-0.4,0.3c-0.7,0.7-1.6,1.2-2.6,1.4c-0.4,0.2-0.8,0.2-1.3,0.1
			c-0.4-0.1-0.6-0.4-0.4-0.8c0.1-0.4,0.3-0.8,0.4-1c1.9-2.9,3.9-5.7,6-8.4c2.1-2.7,4.3-5.3,6.7-7.8c4.3-4.7,8.9-8.9,13.9-12.6
			c-3.2-0.1-6.3-0.2-9.4-0.4c-3.1-0.2-6.2-0.4-9.4-0.5c-0.2,0-0.5,0-0.7,0s-0.4,0-0.7-0.1c-0.2,0.1-0.5,0.3-0.9,0.5
			c-0.4,0.2-0.9,0.3-1.4,0.4h-0.5c-1.1-0.5-2.1-0.9-3-1.1H330c-0.4-0.1-0.6-0.3-0.6-0.6c0-0.3,0.1-0.6,0.3-0.9s0.4-0.6,0.7-0.8
			c0.6-0.7,1.3-1.4,2.3-2c0.3-0.2,0.7-0.4,1.1-0.6c0.4-0.2,0.8-0.3,1.2-0.3c1,0,1.9,0,2.8,0c0.9,0,1.8,0,2.8,0.1l5.8,0.2
			c1.7,0.1,3.5,0.2,5.2,0.3c1.8,0.1,3.5,0.2,5.2,0.3c2.9,0.1,5.8,0.2,8.8,0.2c0.2,0,0.5,0,0.7,0.1c0.2,0,0.3,0.2,0.3,0.6
			c-0.1,0.4-0.3,0.8-0.5,1.2c-0.4,0.6-0.8,1.1-1.4,1.5c-0.5,0.4-1.1,0.8-1.7,1.2c-0.2,0.2-0.5,0.4-0.8,0.5c-0.3,0.2-0.6,0.3-0.9,0.5
			c-0.1,0.1-0.2,0.2-0.3,0.3c-0.1,0.1-0.2,0.1-0.3,0.2c-0.4,0.3-0.7,0.5-1,0.7c-0.7,0.5-1.3,1-1.9,1.4c-0.6,0.5-1.2,1-1.9,1.5
			c0,0-0.1,0.1-0.2,0.2c-0.1,0.1-0.2,0.2-0.3,0.3c-0.1,0.1-0.2,0.2-0.3,0.2c-0.1,0-0.2,0.1-0.3,0.2c-0.3,0.2-0.6,0.5-0.9,0.8
			c-0.3,0.3-0.6,0.5-0.9,0.8c-0.6,0.5-1.1,1.1-1.7,1.6c-0.6,0.6-1.1,1.1-1.7,1.6l-0.2,0.2l-0.2,0.2c-0.1,0.2-0.3,0.4-0.5,0.5
			c-0.2,0.1-0.3,0.3-0.5,0.5c-0.3,0.4-0.7,0.7-1,1.1c-0.3,0.3-0.6,0.7-0.9,1.1c-1.3,1.5-2.6,3-3.8,4.5c-0.1,0.1-0.2,0.3-0.4,0.5
			c-0.1,0.2-0.3,0.3-0.4,0.5c-0.1,0.1-0.1,0.2-0.1,0.2c-0.1,0.1-0.2,0.2-0.2,0.3c0,0.1-0.1,0.2-0.2,0.3l-1.7,2.4
			c-0.1,0.1-0.2,0.2-0.2,0.3c0,0.1-0.1,0.2-0.2,0.3c3.2-1.3,6.5-2.1,9.9-2.4c3.6-0.2,7.2,0.1,10.6,1.1c0.8,0.2,1.6,0.5,2.4,0.8
			c0.8,0.3,1.5,0.7,2.3,1c0.4,0.2,0.8,0.4,1.2,0.6c0.4,0.2,0.8,0.5,1.2,0.7c0.4,0.2,0.7,0.5,1,0.7
			C368.1,161.4,368.4,161.6,368.8,161.8z M338.2,134.9c0.1,0,0.2,0,0.2,0c0,0,0.1,0,0.2,0c-0.1,0-0.2,0-0.2,0
			C338.3,134.9,338.3,134.9,338.2,134.9z"/>
	</g>
	<path class="st6" d="M17.1,180.4c7.2,0.4,11.2,1.8,20.7,1.6c62.4-0.2,134.2-1.5,209.6-3.2c17.2-0.4,41.2-0.2,67.6,0.3
		c19.7,0.7,35,1.3,39.3,2c10.7,1.7,16.7,3.1,20,5.2c1.6,1,2.6,2.1,2.8,3.2c0.1,1.3-1,2.5-2.8,3.8c-3,1.4-8,2.9-13.8,4.4
		c-5.1,1-10.3,1.9-17.9,2.2l-26.2,0.9c-5.7,0.2-5.8-0.1-2.8-0.6c11.1-1.8,22.6-3.2,29-4.7c3.7-0.8,6.6-1.7,8.3-2.5
		c0.9-0.4,1.4-0.8,1.4-1.3c0.4-2.6-7.3-2.9-16.5-2.8l-71.7,0.6l-77.2,1.3c-39.7,0.7-73.9,0.7-102,0c-8.8-0.2-19.3-0.6-19.3-0.6
		c-0.6,0-22.1-1.3-22.1-1.3s-10,0.3-19.3-1.6c-2.5-0.6-5.5-1.9-5.5-1.9l-2.8-1.3c0,0-3.7-1.6-4.1-1.9
		C8.2,180.9,10.2,179.9,17.1,180.4"/>
</g>
</svg>
